<?xml version="1.0" encoding="UTF-8"?>
<svg version="1.1" xmlns="http://www.w3.org/2000/svg" width="500" height="500">
<path d="M0 0 C3.79669668 1.76080139 6.1012468 3.9573989 9 7 C10.85274887 8.87640098 12.70694207 10.75137683 14.5625 12.625 C15.03107422 13.10195312 15.49964844 13.57890625 15.98242188 14.0703125 C19.68528967 17.92874365 19.68528967 17.92874365 24 21 C29.51413133 20.78932721 34.03325473 17.23326062 38.6484375 14.49609375 C42.37718166 12.83163103 44.96251403 12.7189092 49 13 C51.83197448 20.59877122 54.48526781 28.01323028 56 36 C57.216875 35.979375 58.43375 35.95875 59.6875 35.9375 C62.91977322 35.93175884 65.84934741 36.21233685 69 37 C68.47491192 41.92492407 67.43876383 45.78440795 65.3046875 50.24609375 C64.75683594 51.40568604 64.20898438 52.56527832 63.64453125 53.76000977 C63.05470578 54.98584864 62.46486169 56.21167856 61.875 57.4375 C60.97749491 59.32956668 60.08347743 61.22325379 59.1897583 63.11711121 C58.60219249 64.3619051 58.01361835 65.60622357 57.42401123 66.85005188 C55.1977903 71.55221426 53.0591024 76.28511852 51 81.0625 C50.59575806 81.99896362 50.59575806 81.99896362 50.18334961 82.9543457 C49.9281958 83.54562256 49.67304199 84.13689941 49.41015625 84.74609375 C48.12011433 87.72283869 46.79079569 90.67659717 45.4375 93.625 C43.59809489 97.63933688 41.8484951 101.68455246 40.125 105.75 C37.83304223 111.12304529 35.43190678 116.43073591 32.9465332 121.71679688 C24.02832611 140.69028842 15.51487644 159.84152802 7 179 C53.2 178.67 99.4 178.34 147 178 C144.69 173.38 142.38 168.76 140 164 C138.49121152 160.51092664 136.98277085 157.02157514 135.5078125 153.51806641 C134.02924003 150.06822357 132.47217696 146.66984975 130.875 143.2734375 C130.25493253 141.95105703 129.63515545 140.62854036 129.015625 139.3059082 C128.52545898 138.26003036 128.52545898 138.26003036 128.02539062 137.19302368 C125.05171357 130.83316038 122.11100617 124.45789907 119.16601562 118.0847168 C118.38935375 116.4047139 117.61201107 114.72502557 116.83398438 113.0456543 C112.5732079 103.84828492 108.35123739 94.63989738 104.32739258 85.33595276 C100.65284599 76.84329015 96.6843966 68.48578649 92.6640625 60.15234375 C92.06343994 58.90094604 92.06343994 58.90094604 91.45068359 57.62426758 C90.67447071 56.00855158 89.89384267 54.394946 89.10791016 52.78393555 C86.63092914 47.62235887 84.71613442 42.46338997 83 37 C87.29 36.34 91.58 35.68 96 35 C98.36382871 28.9722368 100.25532151 22.88600387 102.03515625 16.66015625 C103 14 103 14 105 13 C110.21308414 12.25527369 112.82190278 13.89266324 116.98046875 16.68359375 C120.41013246 18.91917725 124.04460535 21.21726607 128.25 20.75 C129.11625 20.37875 129.11625 20.37875 130 20 C130.99 19.67 131.98 19.34 133 19 C133 18.34 133 17.68 133 17 C133.66 17 134.32 17 135 17 C135 16.34 135 15.68 135 15 C136.71484375 13.34375 136.71484375 13.34375 138.9375 11.5 C141.92045179 9.11073001 141.92045179 9.11073001 144 6 C144.66 6 145.32 6 146 6 C146 5.34 146 4.68 146 4 C146.66 4 147.32 4 148 4 C148 3.34 148 2.68 148 2 C149.65 1.34 151.3 0.68 153 0 C157.62527573 6.91638065 161.0191974 14.24390071 164.4375 21.8125 C167.96775751 29.61103709 171.56973682 37.29320767 175.77172852 44.75683594 C177.40917221 47.74726183 178.67745249 50.85894966 180 54 C180.99008688 56.00492593 181.99110792 58.00447081 183 60 C185.16140563 64.28043075 187.1110283 68.59239937 189 73 C190.48054552 75.95697841 191.98169279 78.90207746 193.5 81.83984375 C195 85 195 85 196.36401367 88.73168945 C197.87189389 92.79162346 199.69657381 96.60534619 201.67578125 100.453125 C202.38950641 101.86098777 203.1025383 103.26920217 203.81494141 104.67773438 C204.17767151 105.3930835 204.54040161 106.10843262 204.91412354 106.84545898 C206.65239595 110.29445096 208.34987858 113.76302906 210.04296875 117.234375 C210.54632248 118.26637024 210.54632248 118.26637024 211.05984497 119.31921387 C212.10371401 121.46217131 213.14590026 123.60593869 214.1875 125.75 C214.73434448 126.87486816 214.73434448 126.87486816 215.29223633 128.02246094 C221.88733474 141.59950908 228.27969444 155.26092606 234.59814453 168.96875 C238.90604553 178.28377939 243.25359505 187.5857409 247.875 196.75 C254.80184981 210.48920623 261.31557686 224.43394531 267.6875 238.4375 C270.98156394 245.67315923 274.35204531 252.84681106 277.95092773 259.93554688 C281.28697837 266.51873153 284.46239483 273.17638379 287.63037109 279.84179688 C290.16968552 285.18271887 292.7328016 290.51015615 295.3359375 295.8203125 C296.15916504 297.50846069 296.15916504 297.50846069 296.99902344 299.23071289 C298.06127421 301.40737 299.12938742 303.58117855 300.20410156 305.75170898 C300.68588867 306.74243408 301.16767578 307.73315918 301.6640625 308.75390625 C302.09154785 309.62345947 302.5190332 310.4930127 302.95947266 311.38891602 C304 314 304 314 305 320 C274.31 320 243.62 320 212 320 C207.31972681 310.63945362 202.88850621 301.55693282 198.77734375 291.9921875 C197.01400684 287.96198413 195.05995435 284.0433073 193.0625 280.125 C190.04481206 274.19485783 187.21275249 268.20093457 184.5 262.125 C184.14945557 261.34527832 183.79891113 260.56555664 183.43774414 259.76220703 C181 254.24795485 181 254.24795485 181 252 C112.69 252.33 44.38 252.66 -26 253 C-32.3693711 267.30828904 -32.3693711 267.30828904 -38.5625 281.6875 C-53.32050048 316.32050048 -53.32050048 316.32050048 -57 320 C-58.38160115 320.0927833 -59.76788038 320.11747043 -61.15258789 320.11352539 C-62.03342545 320.11344986 -62.914263 320.11337433 -63.8217926 320.11329651 C-64.77907761 320.10813522 -65.73636261 320.10297394 -66.72265625 320.09765625 C-67.69786728 320.0962413 -68.67307831 320.09482635 -69.67784119 320.09336853 C-72.80609143 320.08775133 -75.93427123 320.07519593 -79.0625 320.0625 C-81.17773334 320.05748722 -83.29296781 320.05292393 -85.40820312 320.04882812 C-90.60549296 320.03777631 -95.80274145 320.02102146 -101 320 C-101.66 321.98 -102.32 323.96 -103 326 C-103.66 326 -104.32 326 -105 326 C-105.309375 326.8353125 -105.309375 326.8353125 -105.625 327.6875 C-109.5982717 334.36982059 -115.55679003 336.32748906 -122.7578125 338.3359375 C-131.54808843 340.13635546 -139.68503474 337.21499647 -147.234375 332.6484375 C-153.81224815 328.02414322 -157.89352598 322.80688836 -160 315 C-160.31815166 312.22372289 -160.38058959 309.48043352 -160.375 306.6875 C-160.37483887 305.93710449 -160.37467773 305.18670898 -160.37451172 304.41357422 C-160.22278861 297.04302516 -158.04633714 292.0695057 -154 286 C-153.34 286 -152.68 286 -152 286 C-152 285.34 -152 284.68 -152 284 C-151.34 284 -150.68 284 -150 284 C-150 283.34 -150 282.68 -150 282 C-148.35 281.34 -146.7 280.68 -145 280 C-145 279.34 -145 278.68 -145 278 C-142.2092793 277.16338138 -139.41751988 276.33057263 -136.625 275.5 C-135.8309375 275.26152344 -135.036875 275.02304687 -134.21875 274.77734375 C-133.45820313 274.55175781 -132.69765625 274.32617188 -131.9140625 274.09375 C-130.8614624 273.77954102 -130.8614624 273.77954102 -129.78759766 273.45898438 C-128 273 -128 273 -126 273 C-125.88914063 272.30777344 -125.77828125 271.61554688 -125.6640625 270.90234375 C-123.48976585 261.39938838 -118.15959147 252.17712214 -113.77734375 243.546875 C-111.69226806 239.38588879 -109.7194094 235.17858885 -107.76586914 230.95507812 C-106.13177112 227.42394455 -104.48154928 223.90169094 -102.8046875 220.390625 C-99.23307253 212.91086685 -95.70775471 205.42959384 -92.4375 197.8125 C-89.83711972 191.75773723 -86.97670651 185.87784284 -83.98461914 180.00805664 C-81.01725166 174.14303217 -78.39482554 168.16237919 -75.8359375 162.109375 C-74.41890181 158.84488981 -72.84692213 155.67813047 -71.23828125 152.50390625 C-67.8854688 145.85547883 -64.81751513 139.09446842 -61.76489258 132.30490112 C-56.53657449 120.68107409 -51.20021535 109.12215008 -45.65063477 97.64746094 C-42.76149544 91.65395807 -40.03822545 85.61037576 -37.41772461 79.49536133 C-35.60454866 75.29404681 -33.63658401 71.20325508 -31.5625 67.125 C-28.48962638 61.08236933 -25.70786049 54.94478039 -22.97851562 48.74047852 C-19.76481348 41.4392135 -16.40680017 34.21278096 -13 27 C-12.63197266 26.21882813 -12.26394531 25.43765625 -11.88476562 24.6328125 C-10.69544292 22.10869621 -9.50434974 19.58542397 -8.3125 17.0625 C-7.94390869 16.28140869 -7.57531738 15.50031738 -7.19555664 14.69555664 C-4.86013907 9.76394287 -2.45581182 4.87281849 0 0 Z M-140 298 C-142.60345514 302.19493602 -142.54209581 306.19858 -142 311 C-140.16830464 315.57923841 -137.35944153 317.77915243 -133 320 C-128.42321102 320.90439543 -125.62686435 320.33582019 -121.5 318.125 C-120.675 317.42375 -119.85 316.7225 -119 316 C-119 315.34 -119 314.68 -119 314 C-118.34 314 -117.68 314 -117 314 C-115.54268473 309.44588979 -115.46615592 304.91294128 -116.75 300.3125 C-118.81606082 296.49028748 -120.86462102 294.37845966 -125 293 C-131.45091607 292.35490839 -135.385464 293.26074681 -140 298 Z " fill="#193F9C" transform="translate(180,158)"/>
<path d="M0 0 C8.25 0 16.5 0 25 0 C25.99 3.58875 25.99 3.58875 27 7.25 C27.31324219 8.37003418 27.31324219 8.37003418 27.6328125 9.51269531 C28.53508273 12.84071188 29 15.52327412 29 19 C29.680625 19.103125 30.36125 19.20625 31.0625 19.3125 C34 20 34 20 37.4375 21.5625 C41.17091104 23.06896411 43.03772216 23.38798314 47 23 C50.3530124 21.46676141 50.3530124 21.46676141 53.625 19.4375 C59.44009969 15.9606397 59.44009969 15.9606397 62.22265625 16.15625 C68.33482067 19.05784893 74.99262851 25.7532941 77.87890625 31.859375 C78.06549734 35.157824 76.65065019 37.3014198 75.125 40.1875 C74.29355469 41.78658203 74.29355469 41.78658203 73.4453125 43.41796875 C72 46 72 46 71 47 C70.98824343 48.90455416 70.98824343 48.90455416 71.25 51.125 C71.31703125 51.87007812 71.3840625 52.61515625 71.453125 53.3828125 C72.22951118 57.09837493 73.01649345 59.71422919 75 63 C78.08830574 64.70902627 81.2835583 65.55701829 84.6875 66.4375 C87.760625 67.283125 90.83375 68.12875 94 69 C94 76.92 94 84.84 94 93 C87.21084337 96.39457831 87.21084337 96.39457831 83.375 97.1875 C82.64023437 97.34605469 81.90546875 97.50460938 81.1484375 97.66796875 C79 98 79 98 75 98 C74.69255859 98.93972656 74.69255859 98.93972656 74.37890625 99.8984375 C73.97478516 101.12433594 73.97478516 101.12433594 73.5625 102.375 C73.29566406 103.18710938 73.02882813 103.99921875 72.75390625 104.8359375 C72 107 72 107 71 109 C70.17981711 115.69816027 72.65244749 119.5120427 76 125 C78.00977696 128.69691415 78.00977696 128.69691415 77.9375 130.9375 C76.57378248 133.93767855 74.37264876 135.73770699 72 138 C71.38125 138.845625 70.7625 139.69125 70.125 140.5625 C65.04948029 146.38441966 65.04948029 146.38441966 61 147 C56.98976857 145.51746402 53.5778363 143.31216986 50 141 C46.12201473 138.81994342 44.39503652 138.86054609 40 140 C39.1853125 140.144375 38.370625 140.28875 37.53125 140.4375 C34.42776275 141.24075552 32.50789557 141.97389569 30 144 C27.90227445 148.90199574 26.94567173 153.77204118 26 159 C25 162 25 162 23 163 C21.3325394 163.08426094 19.66174813 163.10725143 17.9921875 163.09765625 C17.00605469 163.09443359 16.01992188 163.09121094 15.00390625 163.08789062 C13.97136719 163.07951172 12.93882812 163.07113281 11.875 163.0625 C10.31458984 163.05573242 10.31458984 163.05573242 8.72265625 163.04882812 C6.14838038 163.03701952 3.57421854 163.02055075 1 163 C-1.37993731 158.72385248 -2.33891914 155.26605227 -2.9375 150.4375 C-3.81018969 146.35405893 -4.25533307 144.56657021 -7.61328125 142.01171875 C-13.15372739 139.56233098 -18.06378477 138.02126159 -24 140 C-26.00334686 141.31461399 -26.00334686 141.31461399 -28 143 C-29.31165385 143.8071716 -30.6477474 144.57536046 -32 145.3125 C-32.66 145.67988281 -33.32 146.04726562 -34 146.42578125 C-36 147 -36 147 -38.11328125 146.234375 C-40.77067923 144.4957875 -42.81788179 142.27982499 -45 140 C-46.60146833 138.39313952 -48.205817 136.78914638 -49.8125 135.1875 C-51.20833333 133.79166667 -52.60416667 132.39583333 -54 131 C-53.11634766 129.38931641 -53.11634766 129.38931641 -52.21484375 127.74609375 C-51.45477179 126.31040227 -50.69571026 124.87417554 -49.9375 123.4375 C-49.54755859 122.73302734 -49.15761719 122.02855469 -48.75585938 121.30273438 C-46.2217343 116.4363172 -45.61706417 113.5054017 -47 108 C-47.15855469 107.17113281 -47.31710938 106.34226562 -47.48046875 105.48828125 C-48.34902829 102.81542123 -49.13201781 101.12776779 -51 99 C-54.53126004 97.48356022 -57.93641571 96.57644274 -61.6875 95.75390625 C-65 95 -65 95 -69 93 C-69 85.08 -69 77.16 -69 69 C-64.42125 67.824375 -64.42125 67.824375 -59.75 66.625 C-53.0977969 64.77174782 -53.0977969 64.77174782 -47.84765625 60.55078125 C-46.2022173 56.39682404 -45.64791005 52.45745871 -46 48 C-46.94711769 45.67939391 -46.94711769 45.67939391 -48.3125 43.5 C-48.76496094 42.72269531 -49.21742188 41.94539063 -49.68359375 41.14453125 C-50.71166424 39.46972206 -51.78491677 37.82262485 -52.875 36.1875 C-54 34 -54 34 -54 32 C-52.00301084 28.00602167 -49.20701236 25.40233745 -45 24 C-44.731875 23.4225 -44.46375 22.845 -44.1875 22.25 C-42.44866056 18.95535686 -39.92354664 17.28799302 -37 15 C-32.9632901 16.93425683 -29.23200097 19.29437744 -25.4375 21.66015625 C-22.37224259 23.36484191 -22.37224259 23.36484191 -19 24 C-15.97546777 23.03144778 -15.97546777 23.03144778 -12.875 21.5625 C-7.16348774 19 -7.16348774 19 -5 19 C-4.58427734 17.19402344 -4.58427734 17.19402344 -4.16015625 15.3515625 C-3.79440321 13.77601093 -3.42851055 12.20049177 -3.0625 10.625 C-2.88009766 9.8309375 -2.69769531 9.036875 -2.50976562 8.21875 C-2.33251953 7.45820313 -2.15527344 6.69765625 -1.97265625 5.9140625 C-1.72914429 4.8614624 -1.72914429 4.8614624 -1.48071289 3.78759766 C-1 2 -1 2 0 0 Z M-1 37 C-1.98613281 37.27457031 -1.98613281 37.27457031 -2.9921875 37.5546875 C-8.96827609 39.49871632 -14.22685446 42.94087009 -19 47 C-19 47.66 -19 48.32 -19 49 C-19.598125 49.2475 -20.19625 49.495 -20.8125 49.75 C-23.36207084 51.20689762 -24.39404758 52.55615936 -26 55 C-26.474375 55.70125 -26.94875 56.4025 -27.4375 57.125 C-31.73807828 65.03806403 -33.70747677 71.8476213 -33.5625 80.875 C-33.55226807 81.83881592 -33.54203613 82.80263184 -33.53149414 83.7956543 C-33.15523381 96.43821457 -28.22774696 105.96121375 -19.20703125 114.74609375 C-17.51915867 116.24021495 -15.79015117 117.63106087 -14 119 C-12.700625 120.051875 -12.700625 120.051875 -11.375 121.125 C-1.13262988 126.81520562 11.5668353 129.5162444 23.09228516 126.44189453 C29.34875776 124.37595361 35.55778008 121.74088563 41 118 C41 117.34 41 116.68 41 116 C41.66 116 42.32 116 43 116 C43 115.34 43 114.68 43 114 C43.88171875 113.65775391 43.88171875 113.65775391 44.78125 113.30859375 C51.09710481 109.58357375 55.10587734 99.98447496 57.3359375 93.20703125 C60.00722467 80.30628558 58.50305541 68.01049732 51.578125 56.671875 C50.1511008 54.66176564 48.6469015 52.83303779 47 51 C46.46503906 50.38511719 45.93007813 49.77023438 45.37890625 49.13671875 C41.15212839 44.57804609 36.5706575 41.69611893 31 39 C30.37867188 38.690625 29.75734375 38.38125 29.1171875 38.0625 C19.56607406 33.60816907 8.91225793 34.19330331 -1 37 Z " fill="#1A3F9A" transform="translate(244,20)"/>
<path d="M0 0 C4.95979287 2.85749384 8.8723289 6.99198669 10.6875 12.4375 C11.79416891 27.89458046 11.79416891 27.89458046 6.6875 34.4375 C6.0275 34.4375 5.3675 34.4375 4.6875 34.4375 C4.6875 35.0975 4.6875 35.7575 4.6875 36.4375 C-2.19476739 40.75578542 -8.25624921 41.47830756 -16.3125 40.4375 C-19.33789447 39.3883348 -21.57923566 38.15248939 -24.3125 36.4375 C-24.3125 35.7775 -24.3125 35.1175 -24.3125 34.4375 C-24.910625 34.2725 -25.50875 34.1075 -26.125 33.9375 C-29.53816853 31.59704158 -30.38840581 28.30008076 -31.3125 24.4375 C-32.3324313 17.5929008 -30.85900571 11.36908265 -27.3125 5.4375 C-20.23329346 -1.74235877 -9.308057 -4.17072554 0 0 Z " fill="#1C4099" transform="translate(266.3125,81.5625)"/>
<path d="M0 0 C2 1 2 1 2.66796875 2.92578125 C2.83941406 3.71339844 3.01085937 4.50101562 3.1875 5.3125 C3.36667969 6.09238281 3.54585937 6.87226563 3.73046875 7.67578125 C4 10 4 10 3 14 C50.19 14 97.38 14 146 14 C146 15.32 146 16.64 146 18 C127.11162119 18.02332783 108.22324529 18.0409786 89.33485508 18.05181217 C80.56527285 18.05697538 71.79569955 18.06401854 63.02612305 18.07543945 C55.38537097 18.08538554 47.74462536 18.09185325 40.10386699 18.09408849 C36.05561615 18.09539573 32.00738381 18.09848238 27.95913887 18.10573006 C24.15319131 18.11248909 20.34726998 18.1146172 16.54131699 18.11310768 C15.14042328 18.11338406 13.73952875 18.11538988 12.33864021 18.11920547 C10.43410492 18.12414083 8.52955574 18.122398 6.62501526 18.12025452 C5.55665719 18.12117631 4.48829912 18.1220981 3.38756657 18.12304783 C1 18 1 18 0 17 C-0.07325168 14.13732433 -0.09238205 11.299281 -0.0625 8.4375 C-0.05798828 7.63119141 -0.05347656 6.82488281 -0.04882812 5.99414062 C-0.03700518 3.99606244 -0.01906914 1.99802217 0 0 Z " fill="#0A2F7E" transform="translate(183,324)"/>
<path d="M0 0 C1.23571918 0.00334608 1.23571918 0.00334608 2.49640238 0.00675976 C3.79920395 0.00441978 3.79920395 0.00441978 5.12832475 0.00203252 C8.06179465 -0.00198139 10.99521352 0.00121369 13.92868388 0.00434887 C16.02245962 0.00299499 18.11623512 0.00121513 20.21001017 -0.00096118 C25.91452182 -0.00553757 31.61901547 -0.00374497 37.32352746 -0.0005821 C43.28123839 0.00194112 49.23894774 -0.00039599 55.19665873 -0.00196826 C65.20580666 -0.00379036 75.21494722 -0.00138291 85.22409403 0.00337231 C96.80804448 0.00881204 108.39197733 0.00705453 119.97592735 0.00154591 C129.90542542 -0.00298764 139.83491817 -0.00363449 149.76441693 -0.00101542 C155.70183924 0.0005464 161.63925327 0.00074375 167.57667506 -0.00255191 C173.15962325 -0.00543401 178.74254868 -0.00344864 184.32549441 0.00234234 C186.37863276 0.00366824 188.43177301 0.0032787 190.48491061 0.00107968 C193.27986434 -0.00163854 196.0747444 0.00175767 198.8696934 0.00675976 C200.09872041 0.00341368 200.09872041 0.00341368 201.35257626 0 C204.60060318 0.01133388 207.20614184 0.09911351 210.31003153 1.13374341 C210.43120341 1.98839184 210.55237528 2.84304028 210.67721903 3.72358716 C210.84479716 4.82831372 211.01237528 5.93304028 211.18503153 7.07124341 C211.34745341 8.17339184 211.50987528 9.27554028 211.67721903 10.41108716 C211.99046122 11.758802 211.99046122 11.758802 212.31003153 13.13374341 C213.30003153 13.62874341 213.30003153 13.62874341 214.31003153 14.13374341 C215.06003153 16.50874341 215.06003153 16.50874341 215.31003153 19.13374341 C214.32003153 20.61874341 214.32003153 20.61874341 213.31003153 22.13374341 C211.97068438 19.17809633 210.63958906 16.2188056 209.31003153 13.25874341 C208.92846903 12.41698559 208.54690653 11.57522778 208.15378153 10.70796216 C207.79284403 9.90229809 207.43190653 9.09663403 207.06003153 8.26655591 C206.72487528 7.52292798 206.38971903 6.77930005 206.04440653 6.01313794 C205.31003153 4.13374341 205.31003153 4.13374341 205.31003153 2.13374341 C137.00003153 2.46374341 68.69003153 2.79374341 -1.68996847 3.13374341 C-3.00996847 6.43374341 -4.32996847 9.73374341 -5.68996847 13.13374341 C-7.68996847 11.13374341 -7.68996847 11.13374341 -7.70168722 8.78608716 C-7.59469503 7.89018872 -7.48770284 6.99429028 -7.37746847 6.07124341 C-7.27821065 5.17276684 -7.17895284 4.27429028 -7.07668722 3.34858716 C-6.32042426 -0.98273703 -3.91202292 0.01374681 0 0 Z " fill="#556A9B" transform="translate(155.68996846675873,407.8662565946579)"/>
<path d="M0 0 C2.31 1.98 4.62 3.96 7 6 C6.39642962 9.81346737 5.26488908 12.82283166 3.5 16.25 C3.0565625 17.12140625 2.613125 17.9928125 2.15625 18.890625 C1 21 1 21 0 22 C-0.01175657 23.90455416 -0.01175657 23.90455416 0.25 26.125 C0.31703125 26.87007812 0.3840625 27.61515625 0.453125 28.3828125 C1.22951118 32.09837493 2.01649345 34.71422919 4 38 C7.08830574 39.70902627 10.2835583 40.55701829 13.6875 41.4375 C16.760625 42.283125 19.83375 43.12875 23 44 C23 51.92 23 59.84 23 68 C20.03 68.99 20.03 68.99 17 70 C17 69.34 17 68.68 17 68 C19.475 67.505 19.475 67.505 22 67 C21.505 57.1 21.505 57.1 21 47 C16.545 47.495 16.545 47.495 12 48 C10.68 47.67 9.36 47.34 8 47 C8 46.01 8 45.02 8 44 C6.865625 43.608125 5.73125 43.21625 4.5625 42.8125 C3.386875 42.214375 2.21125 41.61625 1 41 C0.1875 38.375 0.1875 38.375 0 36 C-0.66 35.67 -1.32 35.34 -2 35 C-2.44921875 31.8671875 -2.44921875 31.8671875 -2.6875 27.875 C-2.77386719 26.57304688 -2.86023438 25.27109375 -2.94921875 23.9296875 C-2.99881389 20.09178681 -2.65025964 16.76466106 -2 13 C-1.34 13 -0.68 13 0 13 C0.99 10.36 1.98 7.72 3 5 C0.69 5 -1.62 5 -4 5 C-3.67 4.34 -3.34 3.68 -3 3 C-2.01 3 -1.02 3 0 3 C0 2.01 0 1.02 0 0 Z " fill="#314990" transform="translate(315,45)"/>
<path d="M0 0 C6.41955051 2.99308156 10.5294459 8.66913309 15 14 C13.69921875 15.51953125 13.69921875 15.51953125 12 17 C8.8125 16.6875 8.8125 16.6875 6 16 C6.33 15.01 6.66 14.02 7 13 C5.02 11.68 3.04 10.36 1 9 C0.731875 9.763125 0.46375 10.52625 0.1875 11.3125 C-1 14 -1 14 -2.5 15.3125 C-6.82006769 20.17257615 -6.25457448 27.89021251 -6 34 C-6.99 33.67 -7.98 33.34 -9 33 C-9 32.67 -9 32.34 -9 32 C-9.99 32 -10.98 32 -12 32 C-13.04557955 28.17068557 -13.03262971 26.1887909 -11.26953125 22.63671875 C-10.87830078 21.83169922 -10.48707031 21.02667969 -10.08398438 20.19726562 C-9.66439453 19.36904297 -9.24480469 18.54082031 -8.8125 17.6875 C-8.41224609 16.87087891 -8.01199219 16.05425781 -7.59960938 15.21289062 C-6.41394558 12.8012082 -5.20956361 10.39977023 -4 8 C-3.23267758 6.46504132 -2.46571985 4.92990024 -1.69921875 3.39453125 C-0.85810547 1.71423828 -0.85810547 1.71423828 0 0 Z " fill="#19398C" transform="translate(180,158)"/>
<path d="M0 0 C2.83197448 7.59877122 5.48526781 15.01323028 7 23 C8.216875 22.979375 9.43375 22.95875 10.6875 22.9375 C13.91977322 22.93175884 16.84934741 23.21233685 20 24 C19.50269348 28.97306516 18.44697666 32.63799813 16 37 C15.67 37 15.34 37 15 37 C15 35.02 15 33.04 15 31 C15.66 31 16.32 31 17 31 C17 29.35 17 27.7 17 26 C16.31292969 26 15.62585938 26 14.91796875 26 C10.9453125 26 6.97265625 26 3 26 C3 24.35 3 22.7 3 21 C2.34 21 1.68 21 1 21 C0.80083984 19.87851563 0.80083984 19.87851563 0.59765625 18.734375 C0.42105469 17.74953125 0.24445313 16.7646875 0.0625 15.75 C-0.11152344 14.77546875 -0.28554687 13.8009375 -0.46484375 12.796875 C-0.90379729 10.50278205 -1.40348592 8.25708029 -2 6 C-3.051875 6.2475 -3.051875 6.2475 -4.125 6.5 C-7 7 -7 7 -10 6.875 C-13.53945747 7.02247739 -15.05792888 8.11405697 -18 10 C-21.38373646 10.96678184 -22.60651463 11.13116179 -26 10 C-25.67 9.34 -25.34 8.68 -25 8 C-23.92878906 7.80083984 -23.92878906 7.80083984 -22.8359375 7.59765625 C-18.17830467 6.616089 -14.41351338 3.90515054 -10.3515625 1.49609375 C-6.62281834 -0.16836897 -4.03748597 -0.2810908 0 0 Z " fill="#1D3B84" transform="translate(229,171)"/>
<path d="M0 0 C0.33 0 0.66 0 1 0 C1 7.26 1 14.52 1 22 C-0.65 22.33 -2.3 22.66 -4 23 C-4 23.66 -4 24.32 -4 25 C-5.32 24.67 -6.64 24.34 -8 24 C-7.67 17.4 -7.34 10.8 -7 4 C-9.64 4 -12.28 4 -15 4 C-14.67 3.34 -14.34 2.68 -14 2 C-9.38 2 -4.76 2 0 2 C0 1.34 0 0.68 0 0 Z " fill="#15358A" transform="translate(336,90)"/>
<path d="M0 0 C2.96050419 2.54046591 4.25796213 5.3279221 5.85546875 8.85546875 C6.39220215 10.02867676 6.92893555 11.20188477 7.48193359 12.41064453 C8.05056435 13.6695473 8.61908459 14.92849999 9.1875 16.1875 C10.34646437 18.7322127 11.51028759 21.27467817 12.67578125 23.81640625 C12.96122803 24.44001038 13.2466748 25.0636145 13.54077148 25.70611572 C16.16257508 31.40825562 18.95310407 37.01625359 21.90307617 42.55541992 C22.65891165 44.00876076 23.33910184 45.50110025 24 47 C23.67 47.66 23.34 48.32 23 49 C21.02 49.495 21.02 49.495 19 50 C18.505 45.05 18.505 45.05 18 40 C16.515 39.505 16.515 39.505 15 39 C15 38.34 15 37.68 15 37 C14.34 36.67 13.68 36.34 13 36 C13 35.34 13 34.68 13 34 C12.01 34 11.02 34 10 34 C8.73762269 31.47524538 8.90143596 29.68799534 8.9375 26.875 C8.94652344 25.96492188 8.95554687 25.05484375 8.96484375 24.1171875 C8.97644531 23.41851562 8.98804688 22.71984375 9 22 C8.34 21.67 7.68 21.34 7 21 C6.375 17.9375 6.375 17.9375 6 15 C4.35 14.67 2.7 14.34 1 14 C1.020625 12.80375 1.04125 11.6075 1.0625 10.375 C1.06882571 6.81995131 0.69888875 3.49444376 0 0 Z " fill="#284A9A" transform="translate(377,251)"/>
<path d="M0 0 C2.20129774 3.30194661 3.91987941 6.74531059 5.66015625 10.30078125 C6.18505898 11.37177315 6.18505898 11.37177315 6.7205658 12.46440125 C7.45895686 13.97425641 8.1960323 15.48475559 8.93188477 16.99584961 C10.05493671 19.29700269 11.18848721 21.59278906 12.32226562 23.88867188 C13.03972126 25.35905375 13.75653905 26.82974706 14.47265625 28.30078125 C14.81120132 28.98223709 15.1497464 29.66369293 15.49855042 30.36579895 C17.36797071 34.24133859 18.52495701 37.71963446 19 42 C16.36 42 13.72 42 11 42 C8.67913603 36.675665 9.08542997 32.56157448 10 27 C9.34 27 8.68 27 8 27 C8.020625 26.278125 8.04125 25.55625 8.0625 24.8125 C8.00179441 22.08074862 7.60741465 19.65743909 7 17 C6.01 16.67 5.02 16.34 4 16 C4 15.34 4 14.68 4 14 C3.01 13.34 2.02 12.68 1 12 C0.48828125 9.1796875 0.48828125 9.1796875 0.3125 5.875 C0.24675781 4.77929688 0.18101562 3.68359375 0.11328125 2.5546875 C0.05720703 1.29011719 0.05720703 1.29011719 0 0 Z " fill="#193791" transform="translate(337,166)"/>
<path d="M0 0 C4.95979287 2.85749384 8.8723289 6.99198669 10.6875 12.4375 C10.834504 14.97331894 10.91830439 17.46377995 10.9375 20 C10.958125 20.68513672 10.97875 21.37027344 11 22.07617188 C11.015625 24.06640625 11.015625 24.06640625 10.6875 27.4375 C9.6975 28.0975 8.7075 28.7575 7.6875 29.4375 C6.83376761 22.40945301 6.56640689 15.51471931 6.6875 8.4375 C6.0275 8.4375 5.3675 8.4375 4.6875 8.4375 C4.006875 7.7259375 4.006875 7.7259375 3.3125 7 C1.39785523 5.15899542 0.25617088 4.96634401 -2.3125 4.4375 C-3.9869239 3.7905635 -5.65552621 3.12790574 -7.3125 2.4375 C-7.3125 1.7775 -7.3125 1.1175 -7.3125 0.4375 C-10.80176074 1.54771932 -14.08296122 2.70738994 -17.3125 4.4375 C-18.3025 4.9325 -18.3025 4.9325 -19.3125 5.4375 C-19.3125 4.7775 -19.3125 4.1175 -19.3125 3.4375 C-20.3025 2.7775 -21.2925 2.1175 -22.3125 1.4375 C-15.25083609 -2.32872075 -7.49699604 -3.33199824 0 0 Z M-21.3125 5.4375 C-19.3125 6.4375 -19.3125 6.4375 -19.3125 6.4375 Z " fill="#334B8D" transform="translate(266.3125,81.5625)"/>
<path d="M0 0 C0.99 0 1.98 0 3 0 C3.144375 1.093125 3.28875 2.18625 3.4375 3.3125 C3.88288104 6.93122987 3.88288104 6.93122987 5 10 C-9.52 10 -24.04 10 -39 10 C-39.33 9.01 -39.66 8.02 -40 7 C-26.8 7 -13.6 7 0 7 C0 4.69 0 2.38 0 0 Z " fill="#2A3F7B" transform="translate(118,468)"/>
<path d="M0 0 C0.33 0 0.66 0 1 0 C1.19466332 1.79090253 1.38051213 3.58276505 1.5625 5.375 C1.66691406 6.37273437 1.77132812 7.37046875 1.87890625 8.3984375 C2 11 2 11 1 13 C0.34 13 -0.32 13 -1 13 C-1.0928125 13.8971875 -1.0928125 13.8971875 -1.1875 14.8125 C-2 17 -2 17 -4 18.625 C-10.38685792 21.55230988 -15.95403958 22 -23 22 C-23 29.59 -23 37.18 -23 45 C-23.33 45 -23.66 45 -24 45 C-24 37.08 -24 29.16 -24 21 C-20.9475 20.21625 -17.895 19.4325 -14.75 18.625 C-8.102654 16.78418311 -8.102654 16.78418311 -2.8828125 12.55078125 C-1.88972231 9.97567528 -1.3379572 7.73398707 -1 5 C-0.67068154 3.33253539 -0.33847047 1.665631 0 0 Z " fill="#435B9A" transform="translate(199,68)"/>
<path d="M0 0 C2.97 0 5.94 0 9 0 C9 0.66 9 1.32 9 2 C11.31 2 13.62 2 16 2 C15.67 2.66 15.34 3.32 15 4 C12.36 4 9.72 4 7 4 C7 9.94 7 15.88 7 22 C6.34 22 5.68 22 5 22 C4.34 16.72 3.68 11.44 3 6 C1.00383446 7.99616554 1.59016573 11.81701963 1.4375 14.5625 C1.39431641 15.27341797 1.35113281 15.98433594 1.30664062 16.71679688 C1.20028223 18.47761912 1.09961154 20.2387832 1 22 C1.66 22.33 2.32 22.66 3 23 C2.01 23 1.02 23 0 23 C0 15.41 0 7.82 0 0 Z " fill="#1A3B8D" transform="translate(176,90)"/>
<path d="M0 0 C0.33 0 0.66 0 1 0 C1.33 5.61 1.66 11.22 2 17 C3.98 17.33 5.96 17.66 8 18 C8.66 18.33 9.32 18.66 10 19 C11.37342831 19.0689472 12.75002102 19.08467708 14.125 19.0625 C16.043125 19.0315625 16.043125 19.0315625 18 19 C17.67 22.3 17.34 25.6 17 29 C16.34 27.68 15.68 26.36 15 25 C11.29947456 23.07572677 7.79492773 21.90022265 3.75 20.9375 C0 20 0 20 -3 18 C-2.67 17.67 -2.34 17.34 -2 17 C-1.97367045 13.81412427 -2.02939398 10.64296002 -2.12695312 7.45898438 C-2.15690319 5.63907734 -2.08461477 3.81818562 -2 2 C-1.34 1.34 -0.68 0.68 0 0 Z " fill="#26479E" transform="translate(179,95)"/>
<path d="M0 0 C0.66666667 1.33333333 1.33333333 2.66666667 2 4 C2.33 4.598125 2.66 5.19625 3 5.8125 C4.76987699 9.68410591 5.2317816 13.82967154 6 18 C11.28 18 16.56 18 22 18 C22.33 17.01 22.66 16.02 23 15 C24.485 14.5359375 24.485 14.5359375 26 14.0625 C26.99 13.711875 27.98 13.36125 29 13 C29.96877057 10.96756452 29.96877057 10.96756452 30 9 C29.855625 10.093125 29.71125 11.18625 29.5625 12.3125 C29 16 29 16 28 19 C25.49502996 20.25248502 23.79146726 20.11374406 20.9921875 20.09765625 C20.00605469 20.09443359 19.01992188 20.09121094 18.00390625 20.08789062 C16.97136719 20.07951172 15.93882812 20.07113281 14.875 20.0625 C13.31458984 20.05573242 13.31458984 20.05573242 11.72265625 20.04882812 C9.14838038 20.03701952 6.57421854 20.02055075 4 20 C0.95996755 14.19554244 -1.43790565 8.57622945 -0.625 1.9375 C-0.41875 1.298125 -0.2125 0.65875 0 0 Z " fill="#5A6EA0" transform="translate(241,163)"/>
<path d="M0 0 C0.99 0.33 1.98 0.66 3 1 C2.125 5.75 2.125 5.75 1 8 C0.34 8 -0.32 8 -1 8 C-1.20625 8.556875 -1.4125 9.11375 -1.625 9.6875 C-3.55000774 12.92501302 -6.03850902 14.68231141 -9 17 C-9.66 16.67 -10.32 16.34 -11 16 C-9.82785938 6.67535897 -9.82785938 6.67535897 -6.625 4.0625 C-5.75875 3.711875 -4.8925 3.36125 -4 3 C-3.29875 2.4225 -2.5975 1.845 -1.875 1.25 C-0.946875 0.63125 -0.946875 0.63125 0 0 Z " fill="#2A4898" transform="translate(76,476)"/>
<path d="M0 0 C1.56324232 0.11534604 3.12559683 0.24275126 4.6875 0.375 C5.99267578 0.47941406 5.99267578 0.47941406 7.32421875 0.5859375 C10 1 10 1 15 3 C15 10.92 15 18.84 15 27 C13.02 27.66 11.04 28.32 9 29 C9 28.34 9 27.68 9 27 C10.65 26.67 12.3 26.34 14 26 C13.67 19.4 13.34 12.8 13 6 C8.545 6.495 8.545 6.495 4 7 C2.68 6.67 1.36 6.34 0 6 C0.185625 5.38125 0.37125 4.7625 0.5625 4.125 C1.23686176 1.95839822 1.23686176 1.95839822 0 0 Z " fill="#355091" transform="translate(323,86)"/>
<path d="M0 0 C0.99 0.33 1.98 0.66 3 1 C2.01 3.97 1.02 6.94 0 10 C0.66 10.33 1.32 10.66 2 11 C1.01 11.495 1.01 11.495 0 12 C-1.10631599 14.62994652 -1.10631599 14.62994652 -2.0625 17.75 C-2.40410156 18.79671875 -2.74570312 19.8434375 -3.09765625 20.921875 C-3.88534251 23.60887402 -4.50534964 26.24627634 -5 29 C-5.33 29 -5.66 29 -6 29 C-6.46601071 17.72512974 -6.42250873 9.6337631 0 0 Z " fill="#334F9A" transform="translate(26,444)"/>
<path d="M0 0 C1 3 1 3 1 5 C0.01 5.495 0.01 5.495 -1 6 C-0.67 8.64 -0.34 11.28 0 14 C-0.639375 14.28875 -1.27875 14.5775 -1.9375 14.875 C-4.15206079 15.82823451 -4.15206079 15.82823451 -5 18 C-5.33 17.67 -5.66 17.34 -6 17 C-6.1546875 18.6396875 -6.1546875 18.6396875 -6.3125 20.3125 C-7 24 -7 24 -8.25 26 C-10 27 -10 27 -12.6875 26.6875 C-13.450625 26.460625 -14.21375 26.23375 -15 26 C-14.38125 25.71125 -13.7625 25.4225 -13.125 25.125 C-10.86674235 24.06279958 -10.86674235 24.06279958 -9 22 C-9.99 22 -10.98 22 -12 22 C-12 22.66 -12 23.32 -12 24 C-14.97 24 -17.94 24 -21 24 C-17.80107719 22.4005386 -15.64537424 21.57404764 -12.25 20.875 C-11.45078125 20.70742188 -10.6515625 20.53984375 -9.828125 20.3671875 C-9.22484375 20.24601562 -8.6215625 20.12484375 -8 20 C-7.896875 19.32453125 -7.79375 18.6490625 -7.6875 17.953125 C-6.85225288 14.36535898 -5.47709177 11.10829355 -4 7.75 C-3.72671875 7.11320312 -3.4534375 6.47640625 -3.171875 5.8203125 C-1.14074248 1.14074248 -1.14074248 1.14074248 0 0 Z " fill="#425CA0" transform="translate(62,411)"/>
<path d="M0 0 C2.59500704 3.89251056 1.86590203 5.5130531 1 10 C0.855625 10.78375 0.71125 11.5675 0.5625 12.375 C0 14 0 14 -2 15 C-2.40729228 17.32156597 -2.74438677 19.6568787 -3 22 C-6.87684087 23.19287411 -9.91621923 24 -14 24 C-14.66 26.64 -15.32 29.28 -16 32 C-18 29 -18 29 -20 23 C-15.71 22.34 -11.42 21.68 -7 21 C-4.29715374 14.10774203 -2.12871018 7.08849683 0 0 Z " fill="#4D6096" transform="translate(283,172)"/>
<path d="M0 0 C1.32 0 2.64 0 4 0 C4 8.91 4 17.82 4 27 C3.67 27 3.34 27 3 27 C3 25.35 3 23.7 3 22 C2.34 22 1.68 22 1 22 C0.63794536 20.04310963 0.28558579 18.08442332 -0.0625 16.125 C-0.25972656 15.03445312 -0.45695313 13.94390625 -0.66015625 12.8203125 C-1 10 -1 10 0 8 C0.66 8 1.32 8 2 8 C2 7.34 2 6.68 2 6 C0.68 5.67 -0.64 5.34 -2 5 C-1.34 3.35 -0.68 1.7 0 0 Z " fill="#173B95" transform="translate(197,46)"/>
<path d="M0 0 C1.32 0 2.64 0 4 0 C4 5.94 4 11.88 4 18 C2.35 18.33 0.7 18.66 -1 19 C-1.02683987 16.02077407 -1.04676037 13.04178705 -1.0625 10.0625 C-1.07087891 9.21236328 -1.07925781 8.36222656 -1.08789062 7.48632812 C-1.09111328 6.67744141 -1.09433594 5.86855469 -1.09765625 5.03515625 C-1.10289307 4.2862915 -1.10812988 3.53742676 -1.11352539 2.76586914 C-1 1 -1 1 0 0 Z " fill="#1D429E" transform="translate(332,94)"/>
<path d="M0 0 C3.38891322 0.68886787 6.18011613 1.98716486 9.25 3.5625 C10.14203125 4.01753906 11.0340625 4.47257812 11.953125 4.94140625 C12.96632813 5.46541016 12.96632813 5.46541016 14 6 C14 6.66 14 7.32 14 8 C15.0725 7.814375 16.145 7.62875 17.25 7.4375 C21 7 21 7 23.1875 7.5625 C25.06328471 8.23107406 25.06328471 8.23107406 26.8125 7 C30.03578548 5.52649807 32.60110277 6.34636592 36 7 C30.64420434 10.57053044 25.66133129 11.45719675 19.39453125 10.5390625 C12.01775337 8.87838493 5.86406186 5.71674541 0 1 C0 0.67 0 0.34 0 0 Z " fill="#53679C" transform="translate(28,486)"/>
<path d="M0 0 C0.33 0 0.66 0 1 0 C0.39174965 4.34464536 -0.26167392 8.67551867 -1 13 C-1.66 13 -2.32 13 -3 13 C-3 16.63 -3 20.26 -3 24 C-4.32 24.33 -5.64 24.66 -7 25 C-9.2072358 26.48800372 -9.2072358 26.48800372 -11 28 C-10.44030144 23.82770165 -9.48690425 20.41485726 -7.71484375 16.6015625 C-7.26689453 15.62832031 -6.81894531 14.65507812 -6.35742188 13.65234375 C-5.88884766 12.65332031 -5.42027344 11.65429688 -4.9375 10.625 C-4.46505859 9.60277344 -3.99261719 8.58054687 -3.50585938 7.52734375 C-2.34367781 5.01515329 -1.17490756 2.50625747 0 0 Z " fill="#2D4995" transform="translate(120,286)"/>
<path d="M0 0 C1.32 0 2.64 0 4 0 C4.33 0.99 4.66 1.98 5 3 C5.99 2.67 6.98 2.34 8 2 C8 3.98 8 5.96 8 8 C7.34 8 6.68 8 6 8 C6.15597656 8.82242188 6.31195313 9.64484375 6.47265625 10.4921875 C7.71329484 17.60737305 8.19206522 23.86371765 7 31 C6.67 31 6.34 31 6 31 C5.98582031 30.14019531 5.97164063 29.28039062 5.95703125 28.39453125 C5.62927124 20.271398 4.32469807 14.14824402 1.05859375 6.64453125 C0.05231356 4.13068738 0 2.67597092 0 0 Z " fill="#475DA1" transform="translate(296,75)"/>
<path d="M0 0 C0.66 0 1.32 0 2 0 C2.33 5.28 2.66 10.56 3 16 C2.01 15.67 1.02 15.34 0 15 C-0.66 15.66 -1.32 16.32 -2 17 C-2.99 17 -3.98 17 -5 17 C-4.69343615 10.37822074 -3.25711277 5.77874846 0 0 Z " fill="#123387" transform="translate(162,196)"/>
<path d="M0 0 C2.64 0 5.28 0 8 0 C8 1.65 8 3.3 8 5 C7.34 5 6.68 5 6 5 C6.061875 6.175625 6.12375 7.35125 6.1875 8.5625 C6.21144173 13.03960301 4.9879056 16.0241888 3 20 C2.34 19.67 1.68 19.34 1 19 C1.33 14.05 1.66 9.1 2 4 C1.34 3.67 0.68 3.34 0 3 C0 2.01 0 1.02 0 0 Z " fill="#1B4298" transform="translate(238,197)"/>
<path d="M0 0 C-0.66 2.97 -1.32 5.94 -2 9 C-2.99 8.67 -3.98 8.34 -5 8 C-5 13.61 -5 19.22 -5 25 C-5.66 24.67 -6.32 24.34 -7 24 C-7 16.08 -7 8.16 -7 0 C-4.3333581 -1.33332095 -2.83319697 -0.67102033 0 0 Z " fill="#18368A" transform="translate(318,50)"/>
<path d="M0 0 C0.99 0.33 1.98 0.66 3 1 C2.360625 1.61875 1.72125 2.2375 1.0625 2.875 C-1.03883584 4.82597612 -1.03883584 4.82597612 -2 7 C-0.68 7.33 0.64 7.66 2 8 C2 8.66 2 9.32 2 10 C1.34 10 0.68 10 0 10 C0.33 14.29 0.66 18.58 1 23 C-1.12018342 20.17308878 -2.98558023 17.53065043 -4.75 14.5 C-5.19859375 13.7471875 -5.6471875 12.994375 -6.109375 12.21875 C-7.16499775 9.58895297 -7.09164493 8.58462991 -6 6 C-3.5 3.3125 -3.5 3.3125 -1 1 C-0.67 0.67 -0.34 0.34 0 0 Z " fill="#3B569B" transform="translate(197,44)"/>
<path d="M0 0 C3.03712966 1.47517726 5.32439801 3.57386523 7.77734375 5.86328125 C8.10734375 6.85328125 8.43734375 7.84328125 8.77734375 8.86328125 C7.78734375 8.86328125 6.79734375 8.86328125 5.77734375 8.86328125 C5.44734375 9.52328125 5.11734375 10.18328125 4.77734375 10.86328125 C4.48859375 10.24453125 4.19984375 9.62578125 3.90234375 8.98828125 C2.84014333 6.7300236 2.84014333 6.7300236 0.77734375 4.86328125 C-2.95561951 4.48041322 -3.99891948 4.7141234 -7.22265625 6.86328125 C-9.91015625 6.98828125 -9.91015625 6.98828125 -12.22265625 6.86328125 C-12.55265625 7.52328125 -12.88265625 8.18328125 -13.22265625 8.86328125 C-13.88265625 8.20328125 -14.54265625 7.54328125 -15.22265625 6.86328125 C-13.14692544 5.66043724 -11.0638253 4.47622424 -8.97265625 3.30078125 C-8.09287109 2.78741211 -8.09287109 2.78741211 -7.1953125 2.26367188 C-2.81405242 -0.17309637 -2.81405242 -0.17309637 0 0 Z " fill="#4B5F9B" transform="translate(306.22265625,36.13671875)"/>
<path d="M0 0 C0.99 0 1.98 0 3 0 C2.98839844 0.61488281 2.97679687 1.22976562 2.96484375 1.86328125 C2.95582031 2.67152344 2.94679688 3.47976562 2.9375 4.3125 C2.92589844 5.11300781 2.91429687 5.91351563 2.90234375 6.73828125 C2.90342145 9.16861334 2.90342145 9.16861334 4 12 C3.01 12.66 2.02 13.32 1 14 C0.42251197 15.96361864 0.42251197 15.96361864 0.3125 18.125 C0.1578125 20.043125 0.1578125 20.043125 0 22 C-1.32 22.33 -2.64 22.66 -4 23 C-4 20.36 -4 17.72 -4 15 C-3.01 14.67 -2.02 14.34 -1 14 C-1.01160156 13.40832031 -1.02320313 12.81664062 -1.03515625 12.20703125 C-1.08322386 7.99768215 -1.06006883 4.1077667 0 0 Z " fill="#153891" transform="translate(284,172)"/>
<path d="M0 0 C0.33 0 0.66 0 1 0 C1.28875 0.9075 1.5775 1.815 1.875 2.75 C2.76531776 5.32202908 3.71494413 7.61346766 5 10 C5.99 10 6.98 10 8 10 C8 11.98 8 13.96 8 16 C6.02 16.66 4.04 17.32 2 18 C2 17.34 2 16.68 2 16 C1.34 16 0.68 16 0 16 C0 10.72 0 5.44 0 0 Z " fill="#193C97" transform="translate(311,134)"/>
<path d="M0 0 C4.12842054 2.90105227 6.10202707 5.32890812 8 10 C8.3984375 13.796875 8.3984375 13.796875 8.375 17.75 C8.38273437 19.06484375 8.39046875 20.3796875 8.3984375 21.734375 C8.26695312 22.81203125 8.13546875 23.8896875 8 25 C7.01 25.66 6.02 26.32 5 27 C4.14626761 19.97195301 3.87890689 13.07721931 4 6 C3.34 6 2.68 6 2 6 C0.375 4 0.375 4 -1 2 C-0.67 1.34 -0.34 0.68 0 0 Z " fill="#405791" transform="translate(269,84)"/>
<path d="M0 0 C3 1 3 1 4.8125 3.3125 C6 6 6 6 5.1875 8.3125 C4.795625 8.869375 4.40375 9.42625 4 10 C2.5 8.6875 2.5 8.6875 1 7 C1 6.01 1 5.02 1 4 C0.01 4.495 0.01 4.495 -1 5 C-1.28875 5.99 -1.5775 6.98 -1.875 8 C-2.24625 8.99 -2.6175 9.98 -3 11 C-5.125 11.875 -5.125 11.875 -7 12 C-7 11.34 -7 10.68 -7 10 C-7.66 9.67 -8.32 9.34 -9 9 C-8.34 8.01 -7.68 7.02 -7 6 C-6.34 6 -5.68 6 -5 6 C-5 5.34 -5 4.68 -5 4 C-4.34 4 -3.68 4 -3 4 C-3 3.34 -3 2.68 -3 2 C-2.01 1.34 -1.02 0.68 0 0 Z " fill="#3F5797" transform="translate(331,158)"/>
<path d="M0 0 C2 1 2 1 3 3 C3.99 2.34 4.98 1.68 6 1 C7 2 7 2 7.1328125 3.99609375 C7.13023437 4.80175781 7.12765625 5.60742188 7.125 6.4375 C7.12757813 7.24058594 7.13015625 8.04367188 7.1328125 8.87109375 C7 11 7 11 6 13 C5.01 13 4.02 13 3 13 C3 12.34 3 11.68 3 11 C2.34 11 1.68 11 1 11 C-0.98362069 8.08291076 -0.9876191 6.87619096 -0.625 3.25 C-0.41875 2.1775 -0.2125 1.105 0 0 Z " fill="#123589" transform="translate(268,199)"/>
<path d="M0 0 C2.97 0.495 2.97 0.495 6 1 C6.12117188 1.85464844 6.24234375 2.70929688 6.3671875 3.58984375 C6.53476562 4.69457031 6.70234375 5.79929687 6.875 6.9375 C7.03742188 8.03964844 7.19984375 9.14179688 7.3671875 10.27734375 C7.68042969 11.62505859 7.68042969 11.62505859 8 13 C8.66 13.33 9.32 13.66 10 14 C10.75 16.375 10.75 16.375 11 19 C10.34 19.99 9.68 20.98 9 22 C7.49394598 18.71106997 5.99619468 15.41842554 4.5 12.125 C4.07074219 11.18785156 3.64148438 10.25070312 3.19921875 9.28515625 C2.79316406 8.38925781 2.38710938 7.49335938 1.96875 6.5703125 C1.59169922 5.74289551 1.21464844 4.91547852 0.82617188 4.06298828 C0 2 0 2 0 0 Z " fill="#324D91" transform="translate(360,408)"/>
<path d="M0 0 C1.64704339 2.47056508 2.61402905 4.41460728 3.6875 7.125 C5.97133497 12.41342393 9.31095058 16.61666318 13 21 C11.68 21.33 10.36 21.66 9 22 C5 17.375 5 17.375 5 14 C4.01 14 3.02 14 2 14 C1.47061343 12.04396149 0.95173199 10.08507711 0.4375 8.125 C0.14746094 7.03445312 -0.14257812 5.94390625 -0.44140625 4.8203125 C-1 2 -1 2 0 0 Z " fill="#4E6399" transform="translate(211,112)"/>
<path d="M0 0 C0.66 0.66 1.32 1.32 2 2 C3.31747324 2.69748583 4.64914193 3.36959957 6 4 C4.68 4 3.36 4 2 4 C1.80664062 4.62648438 1.61328125 5.25296875 1.4140625 5.8984375 C1.15367187 6.71570313 0.89328125 7.53296875 0.625 8.375 C0.36976563 9.18710938 0.11453125 9.99921875 -0.1484375 10.8359375 C-1 13 -1 13 -3 15 C-4.97874054 9.61342854 -5.31634263 6.51510149 -3 1 C-2.01 0.67 -1.02 0.34 0 0 Z " fill="#25459A" transform="translate(317,114)"/>
<path d="M0 0 C3 2 3 2 3.40625 3.91796875 C3.4371875 4.66691406 3.468125 5.41585937 3.5 6.1875 C3.90304887 10.81509809 4.55225421 14.00201521 7 18 C10.55892288 19.53045985 10.55892288 19.53045985 14 20 C13.67 20.99 13.34 21.98 13 23 C6.25 22.125 6.25 22.125 4 21 C3.66666667 19.33333333 3.33333333 17.66666667 3 16 C2.34 15.67 1.68 15.34 1 15 C0.68758629 12.45058627 0.48696579 9.99638487 0.375 7.4375 C0.33632813 6.72658203 0.29765625 6.01566406 0.2578125 5.28320312 C0.16328217 3.52257575 0.08054183 1.76132272 0 0 Z " fill="#52679F" transform="translate(312,65)"/>
<path d="M0 0 C0.66 0.99 1.32 1.98 2 3 C-3.79706928 6.97513322 -10.17307748 6.65791368 -17 6 C-19.90234375 4.98046875 -19.90234375 4.98046875 -22 4 C-22 3.67 -22 3.34 -22 3 C-21.40461426 2.98018066 -20.80922852 2.96036133 -20.19580078 2.93994141 C-17.50507847 2.84483874 -14.81514852 2.73510158 -12.125 2.625 C-11.18785156 2.5940625 -10.25070312 2.563125 -9.28515625 2.53125 C-7.94130859 2.47324219 -7.94130859 2.47324219 -6.5703125 2.4140625 C-5.74289551 2.3826416 -4.91547852 2.3512207 -4.06298828 2.31884766 C-1.78013915 2.17400863 -1.78013915 2.17400863 0 0 Z " fill="#485C97" transform="translate(267,116)"/>
<path d="M0 0 C0.33 0.66 0.66 1.32 1 2 C0.0625 4.625 0.0625 4.625 -1 7 C-1.66 7 -2.32 7 -3 7 C-3 9.31 -3 11.62 -3 14 C-3.99 14 -4.98 14 -6 14 C-6 15.98 -6 17.96 -6 20 C-7.65 20.66 -9.3 21.32 -11 22 C-9.50888944 17.20607956 -7.6169426 12.72696897 -5.5 8.1875 C-5.19191406 7.50751953 -4.88382812 6.82753906 -4.56640625 6.12695312 C-2.24018872 1.12009436 -2.24018872 1.12009436 0 0 Z " fill="#355092" transform="translate(106,320)"/>
<path d="M0 0 C1.32 0.66 2.64 1.32 4 2 C1.69 7.28 -0.62 12.56 -3 18 C-3.33 18 -3.66 18 -4 18 C-4 14.37 -4 10.74 -4 7 C-3.34 7 -2.68 7 -2 7 C-2 5.02 -2 3.04 -2 1 C-1.34 0.67 -0.68 0.34 0 0 Z " fill="#2F4B91" transform="translate(196,305)"/>
<path d="M0 0 C0.33 0.66 0.66 1.32 1 2 C1.66 2 2.32 2 3 2 C3 2.66 3 3.32 3 4 C3.598125 4.103125 4.19625 4.20625 4.8125 4.3125 C7.28243264 5.08876455 8.32251235 6.07088921 10 8 C9.34 8 8.68 8 8 8 C7.67 10.31 7.34 12.62 7 15 C7.66 15 8.32 15 9 15 C9.33 17.31 9.66 19.62 10 22 C7.01643474 19.01643474 5.6482605 15.35652556 3.875 11.5625 C3.50246094 10.78583984 3.12992187 10.00917969 2.74609375 9.20898438 C2.39417969 8.46068359 2.04226563 7.71238281 1.6796875 6.94140625 C1.35726074 6.25763916 1.03483398 5.57387207 0.70263672 4.86938477 C0 3 0 3 0 0 Z " fill="#39579B" transform="translate(270,210)"/>
<path d="M0 0 C0.33 0.66 0.66 1.32 1 2 C-0.35167857 2.34328345 -1.70654275 2.67402697 -3.0625 3 C-3.81660156 3.185625 -4.57070312 3.37125 -5.34765625 3.5625 C-8 4 -8 4 -15 4 C-15 11.59 -15 19.18 -15 27 C-15.33 27 -15.66 27 -16 27 C-16 19.08 -16 11.16 -16 3 C-4.75 -0.375 -4.75 -0.375 0 0 Z " fill="#3E4F85" transform="translate(191,86)"/>
<path d="M0 0 C0.66 0 1.32 0 2 0 C3.07694171 2.80004844 2.95876997 4.1911574 2.3125 7.1875 C1.6628125 8.5796875 1.6628125 8.5796875 1 10 C-1.0625 10.75 -1.0625 10.75 -3 11 C-3.33 11.66 -3.66 12.32 -4 13 C-4 12.34 -4 11.68 -4 11 C-4.66 11 -5.32 11 -6 11 C-6 10.34 -6 9.68 -6 9 C-6.99 8.67 -7.98 8.34 -9 8 C-8.67 7.34 -8.34 6.68 -8 6 C-7.01 6.33 -6.02 6.66 -5 7 C-4.01 6.67 -3.02 6.34 -2 6 C-0.77479736 2.99152582 -0.77479736 2.99152582 0 0 Z " fill="#11348A" transform="translate(330,162)"/>
<path d="M0 0 C0.99 0.33 1.98 0.66 3 1 C3 3.97 3 6.94 3 10 C3.99 10.33 4.98 10.66 6 11 C5.72510809 15.03174806 5.46508424 16.56894631 2.4375 19.375 C1.633125 19.91125 0.82875 20.4475 0 21 C-1 18 -1 18 0 15 C0.07029121 12.42734182 0.09370832 9.88358569 0.0625 7.3125 C0.05573242 6.2596582 0.05573242 6.2596582 0.04882812 5.18554688 C0.03706927 3.45699462 0.01913454 1.72848635 0 0 Z " fill="#0E3489" transform="translate(265,159)"/>
<path d="M0 0 C1.6875 0.6875 1.6875 0.6875 4 2 C4.89912109 2.50853516 4.89912109 2.50853516 5.81640625 3.02734375 C7.54858787 4.01066301 9.27470922 5.00463994 11 6 C10.67 6.99 10.34 7.98 10 9 C9.01 9 8.02 9 7 9 C7 8.34 7 7.68 7 7 C6.34 7 5.68 7 5 7 C5 6.01 5 5.02 5 4 C2.69 4 0.38 4 -2 4 C-1.67 5.32 -1.34 6.64 -1 8 C-3.31 8 -5.62 8 -8 8 C-7.04578192 6.85073734 -6.08647955 5.70569459 -5.125 4.5625 C-4.59132812 3.92441406 -4.05765625 3.28632812 -3.5078125 2.62890625 C-2 1 -2 1 0 0 Z " fill="#4D6398" transform="translate(207,35)"/>
<path d="M0 0 C0.33 0.66 0.66 1.32 1 2 C1.99 1.67 2.98 1.34 4 1 C4.03738281 1.59167969 4.07476562 2.18335938 4.11328125 2.79296875 C4.5240225 7.72991747 5.24091919 10.80619717 8 15 C8.72166191 17.31691454 9.40059529 19.64848923 10 22 C9.34 22.33 8.68 22.66 8 23 C6.87167643 20.45976352 5.74726572 17.91791162 4.625 15.375 C4.30789063 14.66214844 3.99078125 13.94929687 3.6640625 13.21484375 C1.89403488 9.19540604 0.31133626 5.19892519 -1 1 C-0.67 0.67 -0.34 0.34 0 0 Z " fill="#435C98" transform="translate(281,231)"/>
<path d="M0 0 C2.36054214 3.54081321 4.25695498 7.21303212 6.1875 11 C6.56841797 11.72445312 6.94933594 12.44890625 7.34179688 13.1953125 C7.87450195 14.24332031 7.87450195 14.24332031 8.41796875 15.3125 C8.74563232 15.94800781 9.0732959 16.58351562 9.41088867 17.23828125 C10 19 10 19 9 22 C8.34 21.67 7.68 21.34 7 21 C7 19.68 7 18.36 7 17 C6.01 16.67 5.02 16.34 4 16 C4 15.34 4 14.68 4 14 C3.01 13.34 2.02 12.68 1 12 C0.48828125 9.1796875 0.48828125 9.1796875 0.3125 5.875 C0.24675781 4.77929688 0.18101562 3.68359375 0.11328125 2.5546875 C0.05720703 1.29011719 0.05720703 1.29011719 0 0 Z " fill="#44589A" transform="translate(337,166)"/>
<path d="M0 0 C1.32 0.66 2.64 1.32 4 2 C4.39259552 6.44941586 3.3498442 9.22346468 1 13 C-1.125 14.25 -1.125 14.25 -3 15 C-3.33 15.66 -3.66 16.32 -4 17 C-4 15.35 -4 13.7 -4 12 C-3.34 11.67 -2.68 11.34 -2 11 C-1.57014306 8.67646015 -1.57014306 8.67646015 -1.4375 6 C-1.09618321 1.09618321 -1.09618321 1.09618321 0 0 Z " fill="#344F96" transform="translate(213,264)"/>
<path d="M0 0 C0.33 0 0.66 0 1 0 C1 5.61 1 11.22 1 17 C-0.32 17.33 -1.64 17.66 -3 18 C-4 17 -4 17 -4.0625 13.9375 C-4.041875 12.968125 -4.02125 11.99875 -4 11 C-3.01 10.67 -2.02 10.34 -1 10 C-1 8.68 -1 7.36 -1 6 C-1.99 5.67 -2.98 5.34 -4 5 C-3.67 4.01 -3.34 3.02 -3 2 C-2.34 2 -1.68 2 -1 2 C-0.67 1.34 -0.34 0.68 0 0 Z " fill="#11348C" transform="translate(200,137)"/>
<path d="M0 0 C3.38865728 2.77158697 4.94287116 6.5592379 6.75 10.4375 C7.07871094 11.10587891 7.40742188 11.77425781 7.74609375 12.46289062 C10.07068873 17.41123732 10.07068873 17.41123732 9.703125 20.47265625 C9.47109375 20.97667969 9.2390625 21.48070312 9 22 C8.34 21.67 7.68 21.34 7 21 C6.375 17.9375 6.375 17.9375 6 15 C4.35 14.67 2.7 14.34 1 14 C1.020625 12.80375 1.04125 11.6075 1.0625 10.375 C1.06882571 6.81995131 0.69888875 3.49444376 0 0 Z " fill="#445C9D" transform="translate(377,251)"/>
<path d="M0 0 C1.32 0.66 2.64 1.32 4 2 C3.773125 2.969375 3.54625 3.93875 3.3125 4.9375 C2.58971081 9.70400168 4.24314799 13.62275855 6 18 C5.34 18.66 4.68 19.32 4 20 C2.99539469 17.87717331 1.99644398 15.75166979 1 13.625 C0.443125 12.44164062 -0.11375 11.25828125 -0.6875 10.0390625 C-2 7 -2 7 -2 5 C-1.34 5 -0.68 5 0 5 C0 3.35 0 1.7 0 0 Z " fill="#254595" transform="translate(292,249)"/>
<path d="M0 0 C4 3 4 3 4.75 5.6875 C4.87375 6.8321875 4.87375 6.8321875 5 8 C4.195625 8.2475 3.39125 8.495 2.5625 8.75 C-0.171081 9.72238859 -0.171081 9.72238859 -0.8125 12.125 C-0.874375 12.74375 -0.93625 13.3625 -1 14 C-2.32 12.68 -3.64 11.36 -5 10 C-3.35 6.7 -1.7 3.4 0 0 Z " fill="#36539A" transform="translate(195,140)"/>
<path d="M0 0 C1.35158203 0.15275391 1.35158203 0.15275391 2.73046875 0.30859375 C3.41753906 0.39238281 4.10460937 0.47617188 4.8125 0.5625 C4.31519348 5.53556516 3.25947666 9.20049813 0.8125 13.5625 C0.4825 13.5625 0.1525 13.5625 -0.1875 13.5625 C-0.1875 11.5825 -0.1875 9.6025 -0.1875 7.5625 C0.4725 7.5625 1.1325 7.5625 1.8125 7.5625 C1.8125 5.9125 1.8125 4.2625 1.8125 2.5625 C-1.1575 2.5625 -4.1275 2.5625 -7.1875 2.5625 C-7.5175 1.9025 -7.8475 1.2425 -8.1875 0.5625 C-4.98734144 -0.50421952 -3.30205706 -0.38595472 0 0 Z " fill="#4B6099" transform="translate(244.1875,194.4375)"/>
<path d="M0 0 C1.98 0.66 3.96 1.32 6 2 C6.33 4.97 6.66 7.94 7 11 C7.66 11 8.32 11 9 11 C9 12.65 9 14.3 9 16 C8.34 16.33 7.68 16.66 7 17 C5.82866942 14.54379149 4.66278278 12.08525083 3.5 9.625 C3.16613281 8.92632812 2.83226562 8.22765625 2.48828125 7.5078125 C0 2.2265625 0 2.2265625 0 0 Z " fill="#415795" transform="translate(382,456)"/>
<path d="M0 0 C2.79338987 3.43138632 4.77735487 7.18782761 6.75 11.125 C7.24306641 12.07439453 7.24306641 12.07439453 7.74609375 13.04296875 C8.56197269 14.66439906 9.28852285 16.33012128 10 18 C9 20 9 20 7 21 C5.39644899 17.49223216 4.77963136 14.85645121 5 11 C4.01 11 3.02 11 2 11 C1.67 9.35 1.34 7.7 1 6 C0.34 6 -0.32 6 -1 6 C-0.67 4.02 -0.34 2.04 0 0 Z " fill="#4B64A1" transform="translate(427,355)"/>
<path d="M0 0 C2 1 2 1 2.703125 2.890625 C4.50854588 10.67972653 4.50854588 10.67972653 2 15 C3.134375 15.12375 4.26875 15.2475 5.4375 15.375 C6.613125 15.58125 7.78875 15.7875 9 16 C9.33 16.66 9.66 17.32 10 18 C8.52093108 18.02689216 7.04172517 18.04634621 5.5625 18.0625 C4.32693359 18.07990234 4.32693359 18.07990234 3.06640625 18.09765625 C1 18 1 18 0 17 C-0.07325168 14.13732433 -0.09238205 11.299281 -0.0625 8.4375 C-0.05798828 7.63119141 -0.05347656 6.82488281 -0.04882812 5.99414062 C-0.03700518 3.99606244 -0.01906914 1.99802217 0 0 Z " fill="#0F338E" transform="translate(183,324)"/>
<path d="M0 0 C1.96524451 2.94786676 3.57472183 5.90972937 5.1875 9.0625 C5.73792969 10.12597656 6.28835938 11.18945312 6.85546875 12.28515625 C7.23316406 13.18105469 7.61085938 14.07695312 8 15 C7.67 15.66 7.34 16.32 7 17 C5.68 17.33 4.36 17.66 3 18 C2.67 14.7 2.34 11.4 2 8 C1.01 7.67 0.02 7.34 -1 7 C-0.67 4.69 -0.34 2.38 0 0 Z " fill="#3B579B" transform="translate(393,283)"/>
<path d="M0 0 C0.33 0.66 0.66 1.32 1 2 C1.99 1.67 2.98 1.34 4 1 C3.34 2.65 2.68 4.3 2 6 C1.34 6 0.68 6 0 6 C0 6.99 0 7.98 0 9 C-0.66 9 -1.32 9 -2 9 C-2.144375 9.61875 -2.28875 10.2375 -2.4375 10.875 C-3 13 -3 13 -4 15 C-4.66 15 -5.32 15 -6 15 C-5.67 16.65 -5.34 18.3 -5 20 C-5.99 19.67 -6.98 19.34 -8 19 C-6.00386732 12.2813095 -3.2708579 6.19265192 0 0 Z " fill="#324E93" transform="translate(137,250)"/>
<path d="M0 0 C2.31 0 4.62 0 7 0 C4.62722182 5.02470674 1.78902145 6.56030983 -3 9 C-4.32 8.01 -5.64 7.02 -7 6 C-6.21625 5.938125 -5.4325 5.87625 -4.625 5.8125 C-3.75875 5.544375 -2.8925 5.27625 -2 5 C-0.62533375 2.52363988 -0.62533375 2.52363988 0 0 Z " fill="#475B97" transform="translate(308,158)"/>
<path d="M0 0 C0.99 1.32 1.98 2.64 3 4 C1.25626032 7.01191399 -0.11847904 8.72504283 -3.4921875 9.77734375 C-5.99049108 10.26214204 -8.47590991 10.67726329 -11 11 C-10.67 10.34 -10.34 9.68 -10 9 C-9.34 9 -8.68 9 -8 9 C-8 8.34 -8 7.68 -8 7 C-7.34 7 -6.68 7 -6 7 C-6 6.34 -6 5.68 -6 5 C-4.04072937 3.2856382 -2.04119788 1.61594832 0 0 Z " fill="#22418E" transform="translate(321,168)"/>
<path d="M0 0 C0.33 0.66 0.66 1.32 1 2 C1.66 1.67 2.32 1.34 3 1 C5.6723621 0.86584528 8.32250488 0.95681459 11 1 C11.12375 1.804375 11.2475 2.60875 11.375 3.4375 C11.58125 4.283125 11.7875 5.12875 12 6 C12.66 6.33 13.32 6.66 14 7 C11.69 6.67 9.38 6.34 7 6 C7 5.34 7 4.68 7 4 C3.37 4 -0.26 4 -4 4 C-3.34 3.67 -2.68 3.34 -2 3 C-2 2.34 -2 1.68 -2 1 C-1.34 0.67 -0.68 0.34 0 0 Z " fill="#1C3B91" transform="translate(255,49)"/>
<path d="M0 0 C2.49527243 3.1341223 4.40392194 6.38424782 6.25 9.9375 C6.79140625 10.95714844 7.3328125 11.97679687 7.890625 13.02734375 C9.09936996 16.26626951 9.02825685 17.75381703 8 21 C4.65621245 17.3326201 3.64980279 14.87352089 3 10 C2.34 9.34 1.68 8.68 1 8 C0.43479997 5.34462628 0.26211802 2.70855287 0 0 Z " fill="#38599F" transform="translate(447,397)"/>
<path d="M0 0 C6.68632708 3.22788204 6.68632708 3.22788204 7.8125 6 C7.874375 6.66 7.93625 7.32 8 8 C7.34 8.66 6.68 9.32 6 10 C6.66 10.33 7.32 10.66 8 11 C7.34 12.32 6.68 13.64 6 15 C4.99267601 13.06629769 3.99436712 11.12789694 3 9.1875 C2.443125 8.10855469 1.88625 7.02960938 1.3125 5.91796875 C0 3 0 3 0 0 Z " fill="#345096" transform="translate(320,319)"/>
<path d="M0 0 C1.32 0.33 2.64 0.66 4 1 C2.1668733 6.99932374 -0.07321751 12.44920563 -3 18 C-3.33 18 -3.66 18 -4 18 C-3.31195504 11.80759538 -1.71951285 5.98044406 0 0 Z " fill="#314B89" transform="translate(229,232)"/>
<path d="M0 0 C0.33 1.32 0.66 2.64 1 4 C1.66 4 2.32 4 3 4 C2.8125 6.375 2.8125 6.375 2 9 C-0.5 10.125 -0.5 10.125 -3 11 C-3.33 11.99 -3.66 12.98 -4 14 C-4.66 14 -5.32 14 -6 14 C-4.50829734 9.0276578 -2.39542583 4.58154261 0 0 Z " fill="#375299" transform="translate(151,220)"/>
<path d="M0 0 C0.66666667 1.33333333 1.33333333 2.66666667 2 4 C2.33 4.598125 2.66 5.19625 3 5.8125 C4.13017377 8.28475511 4.63309713 10.57967013 5.125 13.25 C5.29257813 14.14203125 5.46015625 15.0340625 5.6328125 15.953125 C5.75398437 16.62859375 5.87515625 17.3040625 6 18 C5.01 18.33 4.02 18.66 3 19 C0.3467568 13.12496148 -2.04911598 6.35225954 0 0 Z " fill="#445A93" transform="translate(241,163)"/>
<path d="M0 0 C1.32 0 2.64 0 4 0 C4 0.66 4 1.32 4 2 C6.31 2 8.62 2 11 2 C10.67 2.66 10.34 3.32 10 4 C7.36 4 4.72 4 2 4 C2 9.94 2 15.88 2 22 C1.34 22 0.68 22 0 22 C0 14.74 0 7.48 0 0 Z " fill="#0E328B" transform="translate(181,90)"/>
<path d="M0 0 C8.25 0 16.5 0 25 0 C24.67 0.66 24.34 1.32 24 2 C16.41 2 8.82 2 1 2 C0.67 4.97 0.34 7.94 0 11 C-0.66 11 -1.32 11 -2 11 C-2.33 11.66 -2.66 12.32 -3 13 C-2.69128878 11.20767663 -2.37790936 9.41615679 -2.0625 7.625 C-1.88847656 6.62726562 -1.71445313 5.62953125 -1.53515625 4.6015625 C-1 2 -1 2 0 0 Z " fill="#556796" transform="translate(244,20)"/>
<path d="M0 0 C3 1 3 1 4.16796875 2.99609375 C4.50441406 3.80175781 4.84085937 4.60742188 5.1875 5.4375 C5.53167969 6.24058594 5.87585938 7.04367188 6.23046875 7.87109375 C7 10 7 10 7 12 C6.34 12 5.68 12 5 12 C5 11.34 5 10.68 5 10 C3.35 10.33 1.7 10.66 0 11 C0 7.37 0 3.74 0 0 Z " fill="#1D3A84" transform="translate(366,230)"/>
<path d="M0 0 C0.33 0 0.66 0 1 0 C1.09878343 4.14890398 0.69487553 7.91760627 0 12 C-0.03622333 13.66627298 -0.04899842 15.33405374 0 17 C0.66 17.33 1.32 17.66 2 18 C1.01 18 0.02 18 -1 18 C-1.67354499 16.56570999 -2.33859701 15.12742943 -3 13.6875 C-3.37125 12.88699219 -3.7425 12.08648437 -4.125 11.26171875 C-5 9 -5 9 -5 6 C-3.68 6.33 -2.36 6.66 -1 7 C-1.20625 6.21625 -1.4125 5.4325 -1.625 4.625 C-1.74875 3.75875 -1.8725 2.8925 -2 2 C-1.34 1.34 -0.68 0.68 0 0 Z " fill="#405D9F" transform="translate(381,436)"/>
<path d="M0 0 C0 0.99 0 1.98 0 3 C-0.99 3.495 -0.99 3.495 -2 4 C-2.33 4.99 -2.66 5.98 -3 7 C-6.3 7.33 -9.6 7.66 -13 8 C-12 5 -12 5 -10.1875 3.8125 C-8 3 -8 3 -4 3 C-4 2.34 -4 1.68 -4 1 C-2 0 -2 0 0 0 Z " fill="#173889" transform="translate(314,178)"/>
<path d="M0 0 C0.99 0.33 1.98 0.66 3 1 C3 2.65 3 4.3 3 6 C2.01 6.495 2.01 6.495 1 7 C0.855625 7.61875 0.71125 8.2375 0.5625 8.875 C-0.09717457 11.36710392 -1.08288629 12.3329446 -3 14 C-4.1484375 12.328125 -4.1484375 12.328125 -5 10 C-4.1015625 7.421875 -4.1015625 7.421875 -2.625 4.75 C-2.14289063 3.85796875 -1.66078125 2.9659375 -1.1640625 2.046875 C-0.77992187 1.37140625 -0.39578125 0.6959375 0 0 Z " fill="#354F9C" transform="translate(68,398)"/>
<path d="M0 0 C5.29441695 -0.50423019 7.81413519 0.81076967 12 4 C11.67 4.66 11.34 5.32 11 6 C8.03 6 5.06 6 2 6 C1.67 5.01 1.34 4.02 1 3 C1.33 2.34 1.66 1.68 2 1 C1.34 0.67 0.68 0.34 0 0 Z " fill="#395194" transform="translate(285,171)"/>
<path d="M0 0 C3 3.36 3 3.36 3 5.9375 C1.56664257 8.8937997 -0.60624426 10.79037931 -3 13 C-3.99 12.34 -4.98 11.68 -6 11 C-6 10.34 -6 9.68 -6 9 C-5.01 9 -4.02 9 -3 9 C-2.67 7.68 -2.34 6.36 -2 5 C-1.34 5 -0.68 5 0 5 C0 3.35 0 1.7 0 0 Z " fill="#38529A" transform="translate(319,145)"/>
<path d="M0 0 C3.38891322 0.68886787 6.18011613 1.98716486 9.25 3.5625 C10.14203125 4.01753906 11.0340625 4.47257812 11.953125 4.94140625 C12.96632813 5.46541016 12.96632813 5.46541016 14 6 C14 6.66 14 7.32 14 8 C15.98 8 17.96 8 20 8 C20 8.66 20 9.32 20 10 C13.26946391 8.82482703 7.61595277 7.00121793 2 3 C1.34 2.01 0.68 1.02 0 0 Z " fill="#4B5C99" transform="translate(28,486)"/>
<path d="M0 0 C0.66 0 1.32 0 2 0 C2.33 1.32 2.66 2.64 3 4 C4.65 3.67 6.3 3.34 8 3 C5.33333333 5.66666667 2.66666667 8.33333333 0 11 C-0.66 10.67 -1.32 10.34 -2 10 C-1.34 6.7 -0.68 3.4 0 0 Z " fill="#395797" transform="translate(67,482)"/>
<path d="M0 0 C0.33 0.66 0.66 1.32 1 2 C0.34 2 -0.32 2 -1 2 C-1 2.66 -1 3.32 -1 4 C-0.34 4 0.32 4 1 4 C1 4.66 1 5.32 1 6 C1.99 6.33 2.98 6.66 4 7 C3.34 7 2.68 7 2 7 C1.67 7.66 1.34 8.32 1 9 C-0.1055189 8.06409496 -1.20935453 7.12620142 -2.3125 6.1875 C-2.92738281 5.66542969 -3.54226563 5.14335938 -4.17578125 4.60546875 C-5.85424679 3.12827531 -7.43882034 1.59960869 -9 0 C-5.67032582 -0.83241855 -3.24733335 -1.2757381 0 0 Z " fill="#36529A" transform="translate(287,60)"/>
<path d="M0 0 C0.66 0.99 1.32 1.98 2 3 C1.67 3.66 1.34 4.32 1 5 C0.34 5 -0.32 5 -1 5 C-0.979375 6.11375 -0.95875 7.2275 -0.9375 8.375 C-1 12 -1 12 -2 14 C-2.66 14 -3.32 14 -4 14 C-4 14.99 -4 15.98 -4 17 C-5.32 17.33 -6.64 17.66 -8 18 C-6.443154 13.98696492 -4.68861143 10.0907072 -2.875 6.1875 C-2.33617188 5.02605469 -1.79734375 3.86460937 -1.2421875 2.66796875 C-0.62730469 1.34732422 -0.62730469 1.34732422 0 0 Z " fill="#455D9B" transform="translate(82,368)"/>
<path d="M0 0 C0.33 1.65 0.66 3.3 1 5 C2.65 5 4.3 5 6 5 C6 6.32 6 7.64 6 9 C7.65 9 9.3 9 11 9 C11 9.33 11 9.66 11 10 C8.13794479 10.63062233 5.88801591 11.12300809 3 11 C-0.26730444 8.63641807 -1.69151697 7.06782587 -2.8125 3.1875 C-2.874375 2.465625 -2.93625 1.74375 -3 1 C-1 0 -1 0 0 0 Z " fill="#26448D" transform="translate(196,149)"/>
<path d="M0 0 C0.33 0 0.66 0 1 0 C1 7.26 1 14.52 1 22 C-2.95360423 18.04639577 -2.73473919 15.43065864 -3.08203125 10.03125 C-2.9717793 5.95717778 -1.99678033 3.51433339 0 0 Z " fill="#5D72AB" transform="translate(210,88)"/>
<path d="M0 0 C0.66 0 1.32 0 2 0 C2.96576714 3.7557611 2.89276335 6.25039392 2 10 C1.65596692 12.33177975 1.32050798 14.66487041 1 17 C0.67 17 0.34 17 0 17 C0 15.02 0 13.04 0 11 C-0.66 11 -1.32 11 -2 11 C-1.85892253 9.54119891 -1.71197585 8.08296449 -1.5625 6.625 C-1.48128906 5.81289062 -1.40007812 5.00078125 -1.31640625 4.1640625 C-1 2 -1 2 0 0 Z " fill="#224088" transform="translate(154,213)"/>
<path d="M0 0 C2.64 1.98 5.28 3.96 8 6 C7.67 7.32 7.34 8.64 7 10 C7.66 10.33 8.32 10.66 9 11 C7.68 10.67 6.36 10.34 5 10 C5 9.34 5 8.68 5 8 C3.35 7.67 1.7 7.34 0 7 C0 4.69 0 2.38 0 0 Z " fill="#3A549A" transform="translate(195,172)"/>
<path d="M0 0 C2.0864415 3.38645505 2.15135082 5.70654855 1.75 9.625 C1.61851562 11.06746094 1.61851562 11.06746094 1.484375 12.5390625 C1 15 1 15 -1 17 C-2.19287411 13.12315913 -3 10.08378077 -3 6 C-2.34 6 -1.68 6 -1 6 C-1.33 5.01 -1.66 4.02 -2 3 C-1.34 2.01 -0.68 1.02 0 0 Z " fill="#10348B" transform="translate(246,160)"/>
<path d="M0 0 C0.33 0 0.66 0 1 0 C1.268125 1.051875 1.53625 2.10375 1.8125 3.1875 C2.8201548 6.951236 2.8201548 6.951236 4.6875 9.8125 C5.3371875 10.8953125 5.3371875 10.8953125 6 12 C5.67 12.66 5.34 13.32 5 14 C4.01 14 3.02 14 2 14 C-0.96823597 10.23262357 -1.53898164 6.70238725 -2 2 C-1.34 2 -0.68 2 0 2 C0 1.34 0 0.68 0 0 Z " fill="#5C71AC" transform="translate(313,130)"/>
<path d="M0 0 C0.33 0 0.66 0 1 0 C0.33333333 4.66666667 -0.33333333 9.33333333 -1 14 C-2.65 14 -4.3 14 -6 14 C-5.54803755 12.39402675 -5.08817673 10.79027492 -4.625 9.1875 C-4.36976563 8.29417969 -4.11453125 7.40085937 -3.8515625 6.48046875 C-2.97883939 3.93836244 -1.92779518 1.92779518 0 0 Z " fill="#425998" transform="translate(303,109)"/>
<path d="M0 0 C1.051875 -0.01675781 2.10375 -0.03351563 3.1875 -0.05078125 C6 0.3125 6 0.3125 7.875 1.83203125 C8.24625 2.32058594 8.6175 2.80914062 9 3.3125 C8.01 3.8075 8.01 3.8075 7 4.3125 C6.01 3.9825 5.02 3.6525 4 3.3125 C-2.31803673 2.89679866 -2.31803673 2.89679866 -8 5.3125 C-8.33 4.3225 -8.66 3.3325 -9 2.3125 C-5.55324591 0.01466394 -4.06671888 0.01495117 0 0 Z " fill="#4A639A" transform="translate(51,448.6875)"/>
<path d="M0 0 C0.66 0 1.32 0 2 0 C2.66 1.98 3.32 3.96 4 6 C4.66 6 5.32 6 6 6 C5.42655063 8.86724686 5.1385485 9.8614515 3 12 C2.01 12 1.02 12 0 12 C0 8.04 0 4.08 0 0 Z " fill="#092D89" transform="translate(201,282)"/>
<path d="M0 0 C0.33 0 0.66 0 1 0 C1.66 2.97 2.32 5.94 3 9 C3.99 9 4.98 9 6 9 C5.67 9.66 5.34 10.32 5 11 C4.34 10.67 3.68 10.34 3 10 C2.67 10.99 2.34 11.98 2 13 C1.01 12.67 0.02 12.34 -1 12 C-1 10.35 -1 8.7 -1 7 C-1.66 7 -2.32 7 -3 7 C-2.690625 6.401875 -2.38125 5.80375 -2.0625 5.1875 C-0.89790296 2.91043228 -0.89790296 2.91043228 0 0 Z " fill="#3C549C" transform="translate(233,185)"/>
<path d="M0 0 C2 2 2 2 2.1953125 5.0390625 C2.17210938 6.22242188 2.14890625 7.40578125 2.125 8.625 C2.10695313 9.81351562 2.08890625 11.00203125 2.0703125 12.2265625 C2.04710938 13.14179688 2.02390625 14.05703125 2 15 C1.01 15 0.02 15 -1 15 C-1.02685412 12.68756208 -1.04632841 10.3750373 -1.0625 8.0625 C-1.07410156 6.77472656 -1.08570312 5.48695313 -1.09765625 4.16015625 C-1 1 -1 1 0 0 Z " fill="#092C8A" transform="translate(90,354)"/>
<path d="M0 0 C3.458176 -0.0868329 6.91607344 -0.14033282 10.375 -0.1875 C11.35984375 -0.21263672 12.3446875 -0.23777344 13.359375 -0.26367188 C14.77089844 -0.27817383 14.77089844 -0.27817383 16.2109375 -0.29296875 C17.08024902 -0.3086792 17.94956055 -0.32438965 18.84521484 -0.34057617 C19.55629395 -0.22818604 20.26737305 -0.1157959 21 0 C23.13586678 3.20380017 23.23132175 4.01939967 23.125 7.6875 C23.10695313 8.49574219 23.08890625 9.30398437 23.0703125 10.13671875 C23.04710937 10.75160156 23.02390625 11.36648437 23 12 C22.67 12 22.34 12 22 12 C20.80712589 8.12315913 20 5.08378077 20 1 C13.4 1 6.8 1 0 1 C0 0.67 0 0.34 0 0 Z " fill="#263D82" transform="translate(247,21)"/>
<path d="M0 0 C0.50265724 5.27790097 -0.74891269 7.86225252 -4 12 C-4.33 12 -4.66 12 -5 12 C-5.125 4.375 -5.125 4.375 -4 1 C-2 0 -2 0 0 0 Z " fill="#234597" transform="translate(26,464)"/>
<path d="M0 0 C2.07092078 2.87627886 1.99513697 4.03133955 1.4375 7.625 C0 11 0 11 -2.625 12.4375 C-3.40875 12.623125 -4.1925 12.80875 -5 13 C-3.78184562 8.31479085 -2.30440013 4.29456388 0 0 Z " fill="#375194" transform="translate(88,355)"/>
<path d="M0 0 C3.14703761 1.57351881 3.7416747 4.30201662 5.1875 7.4375 C5.73792969 8.61183594 6.28835938 9.78617187 6.85546875 10.99609375 C7.23316406 11.98738281 7.61085938 12.97867187 8 14 C7.67 14.66 7.34 15.32 7 16 C2.83553705 12.57919115 0.53366396 8.10907688 -1 3 C-0.67 2.01 -0.34 1.02 0 0 Z " fill="#5671A3" transform="translate(405,309)"/>
<path d="M0 0 C0 0.66 0 1.32 0 2 C-0.99 2 -1.98 2 -3 2 C-3.165 2.61875 -3.33 3.2375 -3.5 3.875 C-5.57187934 6.81016239 -7.63144664 7.00734735 -11.02734375 7.80078125 C-13 8 -13 8 -16 7 C-15.67 6.34 -15.34 5.68 -15 5 C-14.319375 4.87625 -13.63875 4.7525 -12.9375 4.625 C-9.50064137 3.89375348 -6.84744609 2.4935609 -3.76953125 0.83984375 C-2 0 -2 0 0 0 Z " fill="#566DA0" transform="translate(219,174)"/>
<path d="M0 0 C2.31 0 4.62 0 7 0 C4.23352293 2.97140129 1.50322987 4.97181429 -2 7 C-2.66 7.66 -3.32 8.32 -4 9 C-4.33 7.35 -4.66 5.7 -5 4 C-3.35 3.67 -1.7 3.34 0 3 C0 2.01 0 1.02 0 0 Z " fill="#54679E" transform="translate(228,60)"/>
<path d="M0 0 C2.45668485 3.18816967 4.38838956 6.29329598 6 10 C5.67 10.66 5.34 11.32 5 12 C4.01 12.33 3.02 12.66 2 13 C-0.20914 9.68629 -0.22481553 8.6553979 -0.125 4.8125 C-0.10695313 3.91144531 -0.08890625 3.01039063 -0.0703125 2.08203125 C-0.04710937 1.39496094 -0.02390625 0.70789063 0 0 Z " fill="#4664A6" transform="translate(470,445)"/>
<path d="M0 0 C2.74792483 3.40219265 6 7.48464588 6 12 C5.01 12 4.02 12 3 12 C2.731875 11.360625 2.46375 10.72125 2.1875 10.0625 C1.11332248 7.66868314 1.11332248 7.66868314 -2 7 C-1.34 4.69 -0.68 2.38 0 0 Z " fill="#374F93" transform="translate(414,328)"/>
<path d="M0 0 C0.33 0 0.66 0 1 0 C1 3.96 1 7.92 1 12 C0.01 12.495 0.01 12.495 -1 13 C-1.99 12.01 -2.98 11.02 -4 10 C-3.52449439 8.51965236 -3.04448784 7.04074979 -2.5625 5.5625 C-2.29566406 4.73878906 -2.02882812 3.91507813 -1.75390625 3.06640625 C-1 1 -1 1 0 0 Z " fill="#375297" transform="translate(144,235)"/>
<path d="M0 0 C0.99 0.33 1.98 0.66 3 1 C3.99 0.67 4.98 0.34 6 0 C6 3.3 6 6.6 6 10 C5.01 10 4.02 10 3 10 C2.67 7.69 2.34 5.38 2 3 C1.34 3 0.68 3 0 3 C0 2.01 0 1.02 0 0 Z " fill="#123587" transform="translate(277,222)"/>
<path d="M0 0 C2.12472576 -0.05386629 4.24983652 -0.09273071 6.375 -0.125 C7.55835938 -0.14820313 8.74171875 -0.17140625 9.9609375 -0.1953125 C13 0 13 0 15 2 C10.32798795 3.20568053 5.78503708 3.09382426 1 3 C0.67 2.01 0.34 1.02 0 0 Z " fill="#123991" transform="translate(249,177)"/>
<path d="M0 0 C0.66 0 1.32 0 2 0 C1.39147692 3.54971796 0.61653196 6.76693609 -1 10 C-1.99 10.33 -2.98 10.66 -4 11 C-4.6875 8.25 -4.6875 8.25 -5 5 C-3.5625 2.625 -3.5625 2.625 -2 1 C-1.67 1.33 -1.34 1.66 -1 2 C-0.67 1.34 -0.34 0.68 0 0 Z " fill="#3A5599" transform="translate(213,80)"/>
<path d="M0 0 C1.50559539 1.96382007 2.89131683 3.78263366 4 6 C3.34 6 2.68 6 2 6 C2 7.65 2 9.3 2 11 C0.68 10.34 -0.64 9.68 -2 9 C-2 6.69 -2 4.38 -2 2 C-1.34 2 -0.68 2 0 2 C0 1.34 0 0.68 0 0 Z " fill="#12358A" transform="translate(130,448)"/>
<path d="M0 0 C2.5367312 2.20585322 3.46640217 3.68576458 4 7 C3.73046875 9.32421875 3.73046875 9.32421875 3.1875 11.6875 C2.93033203 12.86892578 2.93033203 12.86892578 2.66796875 14.07421875 C2 16 2 16 0 17 C0.33 13.37 0.66 9.74 1 6 C0.34 6 -0.32 6 -1 6 C-0.67 4.02 -0.34 2.04 0 0 Z " fill="#324C95" transform="translate(346,187)"/>
<path d="M0 0 C0.33 0 0.66 0 1 0 C1 5.94 1 11.88 1 18 C0.67 18 0.34 18 0 18 C0 16.35 0 14.7 0 13 C-0.66 13 -1.32 13 -2 13 C-2.33 10.69 -2.66 8.38 -3 6 C-2.34 5.67 -1.68 5.34 -1 5 C-0.34444881 2.47266765 -0.34444881 2.47266765 0 0 Z " fill="#1D3784" transform="translate(200,55)"/>
<path d="M0 0 C2.50298434 2.93828597 3.46930939 5.17902761 4 9 C2.0625 9.5625 2.0625 9.5625 0 10 C-1 9 -1 9 -1.125 5.5625 C-1 2 -1 2 0 0 Z " fill="#415EA2" transform="translate(480,466)"/>
<path d="M0 0 C0.99 0.33 1.98 0.66 3 1 C2.71640113 2.4391134 2.42278601 3.87625518 2.125 5.3125 C1.88136719 6.51326172 1.88136719 6.51326172 1.6328125 7.73828125 C1 10 1 10 -1 13 C-2.16045439 8.74500059 -1.82904781 5.31104861 -1 1 C-0.67 0.67 -0.34 0.34 0 0 Z " fill="#3556A2" transform="translate(150,408)"/>
<path d="M0 0 C-0.99 0.66 -1.98 1.32 -3 2 C-3 3.32 -3 4.64 -3 6 C-4.98 6 -6.96 6 -9 6 C-9.66 4.68 -10.32 3.36 -11 2 C-9.54494642 1.47007308 -8.08581873 0.9513211 -6.625 0.4375 C-5.81289063 0.14746094 -5.00078125 -0.14257812 -4.1640625 -0.44140625 C-2 -1 -2 -1 0 0 Z " fill="#3C5294" transform="translate(278,143)"/>
<path d="M0 0 C2 3 2 3 2 7 C2.99 7 3.98 7 5 7 C4 9 4 9 2 11 C1.01 11 0.02 11 -1 11 C-1 9.35 -1 7.7 -1 6 C-1.66 5.67 -2.32 5.34 -3 5 C-2.34 5 -1.68 5 -1 5 C-0.67 3.35 -0.34 1.7 0 0 Z " fill="#14358B" transform="translate(211,119)"/>
<path d="M0 0 C0.33 0.99 0.66 1.98 1 3 C0.67 3.66 0.34 4.32 0 5 C-0.0396713 6.66619446 -0.04384447 8.33391013 0 10 C-0.185625 9.401875 -0.37125 8.80375 -0.5625 8.1875 C-2.72273753 4.90018201 -5.35107655 4.35145313 -9 3 C-6.23776722 0.23776722 -3.79293383 0.42143709 0 0 Z " fill="#5469A1" transform="translate(196,114)"/>
<path d="M0 0 C1.65 0.33 3.3 0.66 5 1 C4.34 3.97 3.68 6.94 3 10 C1.68 9.34 0.36 8.68 -1 8 C-0.835 7.236875 -0.67 6.47375 -0.5 5.6875 C0.09145396 2.96403764 0.09145396 2.96403764 0 0 Z " fill="#193D98" transform="translate(313,49)"/>
<path d="M0 0 C2.90408342 3.87211123 3.85079464 6.40317854 5 11 C4.34 11 3.68 11 3 11 C2.67 11.66 2.34 12.32 2 13 C1.67 12.01 1.34 11.02 1 10 C0.34 10 -0.32 10 -1 10 C-0.67 6.7 -0.34 3.4 0 0 Z " fill="#465D95" transform="translate(359,212)"/>
<path d="M0 0 C0.66 0.33 1.32 0.66 2 1 C1.67 5.95 1.34 10.9 1 16 C0.34 16 -0.32 16 -1 16 C-1.02685095 13.52076199 -1.04676547 11.0418116 -1.0625 8.5625 C-1.07506836 7.50192383 -1.07506836 7.50192383 -1.08789062 6.41992188 C-1.09653588 4.61306441 -1.05220011 2.80612397 -1 1 C-0.67 0.67 -0.34 0.34 0 0 Z " fill="#123589" transform="translate(239,201)"/>
<path d="M0 0 C0.33 0 0.66 0 1 0 C1 2.64 1 5.28 1 8 C0.01 8.33 -0.98 8.66 -2 9 C-2.33 10.98 -2.66 12.96 -3 15 C-4.1484375 13.359375 -4.1484375 13.359375 -5 11 C-4.1015625 8.203125 -4.1015625 8.203125 -2.625 5.25 C-2.14289063 4.26515625 -1.66078125 3.2803125 -1.1640625 2.265625 C-0.77992188 1.51796875 -0.39578125 0.7703125 0 0 Z " fill="#445993" transform="translate(162,196)"/>
<path d="M0 0 C2.59500704 3.89251056 1.86590203 5.5130531 1 10 C0.87625 10.78375 0.7525 11.5675 0.625 12.375 C0.41875 12.91125 0.2125 13.4475 0 14 C-0.99 14.33 -1.98 14.66 -3 15 C-2.22095672 4.44191344 -2.22095672 4.44191344 0 0 Z " fill="#455A8F" transform="translate(283,172)"/>
<path d="M0 0 C2 2 2 2 2 5 C1.01 5 0.02 5 -1 5 C-1 6.32 -1 7.64 -1 9 C-1.66 9 -2.32 9 -3 9 C-3 10.65 -3 12.3 -3 14 C-3.66 14 -4.32 14 -5 14 C-5.33 15.32 -5.66 16.64 -6 18 C-7.42600325 13.72199024 -5.45637064 11.13234078 -3.5625 7.3125 C-3.22412109 6.61060547 -2.88574219 5.90871094 -2.53710938 5.18554688 C-1.70018652 3.45276294 -0.85122607 1.72580248 0 0 Z " fill="#516599" transform="translate(175,168)"/>
<path d="M0 0 C0.66 0 1.32 0 2 0 C2.88336837 2.4667645 3.1312406 3.63859372 2.22265625 6.140625 C1.83980469 6.83671875 1.45695312 7.5328125 1.0625 8.25 C0.68222656 8.95640625 0.30195312 9.6628125 -0.08984375 10.390625 C-0.39019531 10.92171875 -0.69054687 11.4528125 -1 12 C-1.99 11.34 -2.98 10.68 -4 10 C-3.34 10 -2.68 10 -2 10 C-2 7.69 -2 5.38 -2 3 C-1.34 3 -0.68 3 0 3 C0 2.01 0 1.02 0 0 Z " fill="#3D5998" transform="translate(125,465)"/>
<path d="M0 0 C0.99 0 1.98 0 3 0 C3.66 2.97 4.32 5.94 5 9 C4.01 9 3.02 9 2 9 C2 8.34 2 7.68 2 7 C0.68 7.33 -0.64 7.66 -2 8 C-1.34 5.36 -0.68 2.72 0 0 Z " fill="#1C3986" transform="translate(34,461)"/>
<path d="M0 0 C2.45823172 3.68734758 3.01242616 6.69699971 4 11 C3.01 11 2.02 11 1 11 C0.67 11.66 0.34 12.32 0 13 C-0.19658808 11.58456585 -0.38187546 10.16755969 -0.5625 8.75 C-0.66691406 7.96109375 -0.77132812 7.1721875 -0.87890625 6.359375 C-1.00027349 3.99467126 -0.69633257 2.2488963 0 0 Z " fill="#133992" transform="translate(138,426)"/>
<path d="M0 0 C1.3609623 2.7219246 0.70366248 4.1831957 0.0625 7.125 C-0.13214844 8.03507812 -0.32679687 8.94515625 -0.52734375 9.8828125 C-0.68332031 10.58148438 -0.83929688 11.28015625 -1 12 C-2.32 11.34 -3.64 10.68 -5 10 C-3.14285714 2.42857143 -3.14285714 2.42857143 0 0 Z " fill="#344F92" transform="translate(94,345)"/>
<path d="M0 0 C0.33 0 0.66 0 1 0 C0.39174965 4.34464536 -0.26167392 8.67551867 -1 13 C-2.32 13.33 -3.64 13.66 -5 14 C-4.34580901 8.93001981 -2.1453591 4.58009223 0 0 Z " fill="#4B609B" transform="translate(120,286)"/>
<path d="M0 0 C0.33 0.66 0.66 1.32 1 2 C0.34 2 -0.32 2 -1 2 C-1 2.66 -1 3.32 -1 4 C0.65 3.34 2.3 2.68 4 2 C3.67 3.65 3.34 5.3 3 7 C0.69 7 -1.62 7 -4 7 C-4 5.68 -4 4.36 -4 3 C-3.34 3 -2.68 3 -2 3 C-2 2.34 -2 1.68 -2 1 C-1.34 0.67 -0.68 0.34 0 0 Z " fill="#32529A" transform="translate(289,133)"/>
<path d="M0 0 C1.32 0.33 2.64 0.66 4 1 C3.01 2.485 3.01 2.485 2 4 C2.33 4.33 2.66 4.66 3 5 C3.04063832 6.66617115 3.042721 8.33388095 3 10 C1.02 10 -0.96 10 -3 10 C-2.34 9.34 -1.68 8.68 -1 8 C-0.54188325 6.02764667 -0.54188325 6.02764667 -0.375 3.875 C-0.25125 2.59625 -0.1275 1.3175 0 0 Z " fill="#103186" transform="translate(244,84)"/>
<path d="M0 0 C0 0.99 0 1.98 0 3 C-1.7902061 3.67057887 -3.58221489 4.3363469 -5.375 5 C-6.37273438 5.37125 -7.37046875 5.7425 -8.3984375 6.125 C-11 7 -11 7 -13 7 C-12.67 5.68 -12.34 4.36 -12 3 C-9.03 3 -6.06 3 -3 3 C-3 2.34 -3 1.68 -3 1 C-2.01 0.67 -1.02 0.34 0 0 Z " fill="#1E3A88" transform="translate(53,432)"/>
<path d="M0 0 C0.66 0.33 1.32 0.66 2 1 C2 5.62 2 10.24 2 15 C1.34 15 0.68 15 0 15 C-0.19517554 13.06325815 -0.38087873 11.12555991 -0.5625 9.1875 C-0.66691406 8.10855469 -0.77132812 7.02960938 -0.87890625 5.91796875 C-1 3 -1 3 0 0 Z " fill="#092C8E" transform="translate(108,317)"/>
<path d="M0 0 C0.99 0.66 1.98 1.32 3 2 C2.01 4.97 1.02 7.94 0 11 C-0.66 10.67 -1.32 10.34 -2 10 C-1.85950482 8.52031676 -1.71245174 7.04125484 -1.5625 5.5625 C-1.48128906 4.73878906 -1.40007812 3.91507813 -1.31640625 3.06640625 C-1 1 -1 1 0 0 Z " fill="#36518E" transform="translate(241,206)"/>
<path d="M0 0 C3.10025941 1.11953812 5.56688174 2.92212123 8.25 4.8125 C7.59 5.4725 6.93 6.1325 6.25 6.8125 C2.63060496 5.08506146 -0.62567603 3.33599243 -3.75 0.8125 C-1.75 -0.1875 -1.75 -0.1875 0 0 Z " fill="#475A91" transform="translate(293.75,157.1875)"/>
<path d="M0 0 C0.33 0 0.66 0 1 0 C1 2.64 1 5.28 1 8 C-0.65 8.66 -2.3 9.32 -4 10 C-3.67 8.02 -3.34 6.04 -3 4 C-2.34 4 -1.68 4 -1 4 C-0.67 2.68 -0.34 1.36 0 0 Z " fill="#233E88" transform="translate(243,84)"/>
<path d="M0 0 C1.051875 0.350625 2.10375 0.70125 3.1875 1.0625 C6.7954681 1.94970527 8.52632489 2.05262882 12 1 C10.9375 2.9375 10.9375 2.9375 9 5 C5.3125 5.75 5.3125 5.75 2 6 C1.34 4.02 0.68 2.04 0 0 Z " fill="#51669C" transform="translate(218,42)"/>
<path d="M0 0 C0.66 0 1.32 0 2 0 C2.96661363 3.12180401 2.98988909 5.52083795 2.5625 8.75 C2.40974609 9.94882812 2.40974609 9.94882812 2.25390625 11.171875 C2.12822266 12.07679688 2.12822266 12.07679688 2 13 C1.34 13 0.68 13 0 13 C-0.19658808 11.58456585 -0.38187546 10.16755969 -0.5625 8.75 C-0.66691406 7.96109375 -0.77132812 7.1721875 -0.87890625 6.359375 C-1.00027349 3.99467126 -0.69633257 2.2488963 0 0 Z " fill="#0A2E8A" transform="translate(117,299)"/>
<path d="M0 0 C0.33 0 0.66 0 1 0 C2.10643764 5.83394389 2.27137992 8.76579213 -1 14 C-1.66 14 -2.32 14 -3 14 C-2.69147815 12.041036 -2.3780582 10.08284287 -2.0625 8.125 C-1.88847656 7.03445313 -1.71445313 5.94390625 -1.53515625 4.8203125 C-1 2 -1 2 0 0 Z " fill="#2D499C" transform="translate(122,282)"/>
<path d="M0 0 C0.66 0 1.32 0 2 0 C2 1.65 2 3.3 2 5 C2.66 5 3.32 5 4 5 C4 6.65 4 8.3 4 10 C2.68 9.67 1.36 9.34 0 9 C0 6.03 0 3.06 0 0 Z " fill="#133186" transform="translate(229,223)"/>
<path d="M0 0 C0.99 0.33 1.98 0.66 3 1 C2.72510809 5.03174806 2.46508424 6.56894631 -0.5625 9.375 C-1.366875 9.91125 -2.17125 10.4475 -3 11 C-3.33 10.01 -3.66 9.02 -4 8 C-3.01 7.67 -2.02 7.34 -1 7 C-0.67 4.69 -0.34 2.38 0 0 Z " fill="#1B388B" transform="translate(268,169)"/>
<path d="M0 0 C0.33 0 0.66 0 1 0 C1.66 5.28 2.32 10.56 3 16 C2.01 16 1.02 16 0 16 C0 10.72 0 5.44 0 0 Z " fill="#0F3589" transform="translate(311,134)"/>
<path d="M0 0 C2.475 0.495 2.475 0.495 5 1 C4.34 3.64 3.68 6.28 3 9 C2.34 9 1.68 9 1 9 C0.67 6.03 0.34 3.06 0 0 Z " fill="#15378A" transform="translate(475,465)"/>
<path d="M0 0 C0.66 0 1.32 0 2 0 C2.22142255 1.95689659 2.4267568 3.91561952 2.625 5.875 C2.74101562 6.96554687 2.85703125 8.05609375 2.9765625 9.1796875 C2.98429687 10.11039062 2.99203125 11.04109375 3 12 C2.34 12.66 1.68 13.32 1 14 C-0.38226016 11.23547967 -0.09525387 8.9538637 -0.0625 5.875 C-0.05347656 4.77929688 -0.04445313 3.68359375 -0.03515625 2.5546875 C-0.02355469 1.71164062 -0.01195312 0.86859375 0 0 Z " fill="#12368C" transform="translate(384,273)"/>
<path d="M0 0 C1.98 0.495 1.98 0.495 4 1 C3.67 2.98 3.34 4.96 3 7 C1.68 7 0.36 7 -1 7 C-0.67 4.69 -0.34 2.38 0 0 Z " fill="#284690" transform="translate(139,245)"/>
<path d="M0 0 C0.66 0 1.32 0 2 0 C2.69965443 1.26418246 3.38434763 2.53665402 4.0625 3.8125 C4.63677734 4.87404297 4.63677734 4.87404297 5.22265625 5.95703125 C6 8 6 8 5 11 C4.34 10.67 3.68 10.34 3 10 C3 8.68 3 7.36 3 6 C2.01 5.67 1.02 5.34 0 5 C-0.75 3 -0.75 3 -1 1 C-0.67 0.67 -0.34 0.34 0 0 Z " fill="#596BA2" transform="translate(341,177)"/>
<path d="M0 0 C0.33 0 0.66 0 1 0 C0.54177532 3.46941546 0.10868317 6.67395049 -1 10 C-3.97 9.505 -3.97 9.505 -7 9 C-6.67 8.01 -6.34 7.02 -6 6 C-2.9375 4.8125 -2.9375 4.8125 0 4 C0 2.68 0 1.36 0 0 Z " fill="#4A6093" transform="translate(270,172)"/>
<path d="M0 0 C0.99 0.33 1.98 0.66 3 1 C2.67 2.32 2.34 3.64 2 5 C2.99 5 3.98 5 5 5 C5 5.66 5 6.32 5 7 C3.02 7 1.04 7 -1 7 C-1.66 5.35 -2.32 3.7 -3 2 C-2.01 1.34 -1.02 0.68 0 0 Z " fill="#14368B" transform="translate(278,142)"/>
<path d="M0 0 C0.99 0.99 1.98 1.98 3 3 C2.3125 4.9375 2.3125 4.9375 1 7 C-1.95411203 8.08835706 -3.37831087 8.25203613 -6.3125 7.0625 C-6.869375 6.711875 -7.42625 6.36125 -8 6 C-5.69 5.34 -3.38 4.68 -1 4 C-0.67 2.68 -0.34 1.36 0 0 Z " fill="#586CA3" transform="translate(195,79)"/>
<path d="M0 0 C0.66 0 1.32 0 2 0 C1.54917531 1.46067199 1.08906463 2.91848032 0.625 4.375 C0.36976563 5.18710937 0.11453125 5.99921875 -0.1484375 6.8359375 C-1 9 -1 9 -3 11 C-4 8 -4 8 -3.22265625 5.95703125 C-2.83980469 5.24933594 -2.45695313 4.54164063 -2.0625 3.8125 C-1.68222656 3.09707031 -1.30195313 2.38164062 -0.91015625 1.64453125 C-0.60980469 1.10183594 -0.30945313 0.55914062 0 0 Z " fill="#435D95" transform="translate(190,323)"/>
<path d="M0 0 C0.66 0 1.32 0 2 0 C3.61949011 2.57213134 4.04408751 3.67669159 3.625 6.75 C3.41875 7.4925 3.2125 8.235 3 9 C2.01 8.67 1.02 8.34 0 8 C0 5.36 0 2.72 0 0 Z " fill="#314B8B" transform="translate(386,271)"/>
<path d="M0 0 C0.66 0 1.32 0 2 0 C2 2.31 2 4.62 2 7 C0.68 7.33 -0.64 7.66 -2 8 C-2.33 6.35 -2.66 4.7 -3 3 C-2.34 3 -1.68 3 -1 3 C-0.67 2.01 -0.34 1.02 0 0 Z " fill="#2F4D9A" transform="translate(170,182)"/>
<path d="M0 0 C1.32 1.32 2.64 2.64 4 4 C2.875 5.5625 2.875 5.5625 1 7 C-2.1875 6.6875 -2.1875 6.6875 -5 6 C-4.67 5.34 -4.34 4.68 -4 4 C-1.9375 3.375 -1.9375 3.375 0 3 C0 2.01 0 1.02 0 0 Z " fill="#3454A4" transform="translate(191,168)"/>
<path d="M0 0 C1.6875 1.4375 1.6875 1.4375 3 4 C2.35087445 7.14284955 1.23221253 10.04268993 0 13 C-0.33 13 -0.66 13 -1 13 C-1.042721 11.33388095 -1.04063832 9.66617115 -1 8 C-0.67 7.67 -0.34 7.34 0 7 C-0.33 7 -0.66 7 -1 7 C-1.04254356 5.00045254 -1.04080783 2.99958364 -1 1 C-0.67 0.67 -0.34 0.34 0 0 Z " fill="#4461A4" transform="translate(133,446)"/>
<path d="M0 0 C1.32 0.66 2.64 1.32 4 2 C3.34 4.31 2.68 6.62 2 9 C0.4375 7.875 0.4375 7.875 -1 6 C-0.6875 2.8125 -0.6875 2.8125 0 0 Z " fill="#3B57A2" transform="translate(141,427)"/>
<path d="M0 0 C1 3 1 3 1 5 C0.01 5.495 0.01 5.495 -1 6 C-0.67 7.32 -0.34 8.64 0 10 C-0.66 10 -1.32 10 -2 10 C-2 10.66 -2 11.32 -2 12 C-2.99 12 -3.98 12 -5 12 C-3.85814266 7.52040582 -2.56984833 3.85477249 0 0 Z " fill="#6278AC" transform="translate(62,411)"/>
<path d="M0 0 C0.33 0 0.66 0 1 0 C1.19601608 1.74906659 1.38147403 3.49931846 1.5625 5.25 C1.66691406 6.22453125 1.77132812 7.1990625 1.87890625 8.203125 C1.98974468 10.7631352 1.77738092 12.58148159 1 15 C0.34 14.67 -0.32 14.34 -1 14 C-1.027193 12.41676312 -1.04648306 10.83338938 -1.0625 9.25 C-1.07410156 8.36828125 -1.08570313 7.4865625 -1.09765625 6.578125 C-1.00826198 4.2181162 -0.66912821 2.25501476 0 0 Z " fill="#0E3393" transform="translate(211,260)"/>
<path d="M0 0 C2.27005139 3.40507709 2.18320175 4.21478421 1.75 8.125 C1.66234375 9.01445312 1.5746875 9.90390625 1.484375 10.8203125 C1.32453125 11.53960937 1.1646875 12.25890625 1 13 C0.01 13.495 0.01 13.495 -1 14 C-1.08333357 9.1666528 -0.95261487 4.76307437 0 0 Z " fill="#133685" transform="translate(376,250)"/>
<path d="M0 0 C0.33 0.66 0.66 1.32 1 2 C1.804375 2.144375 2.60875 2.28875 3.4375 2.4375 C6 3 6 3 8 6 C5.03 6 2.06 6 -1 6 C-0.67 4.02 -0.34 2.04 0 0 Z " fill="#133587" transform="translate(202,179)"/>
<path d="M0 0 C0.99 0 1.98 0 3 0 C2.88590407 1.45922693 2.75834456 2.91740598 2.625 4.375 C2.55539062 5.18710938 2.48578125 5.99921875 2.4140625 6.8359375 C2 9 2 9 0 11 C-0.33 10.67 -0.66 10.34 -1 10 C-0.91036938 8.30858344 -0.75422324 6.62040398 -0.5625 4.9375 C-0.46066406 4.01839844 -0.35882813 3.09929687 -0.25390625 2.15234375 C-0.17011719 1.44207031 -0.08632813 0.73179687 0 0 Z " fill="#1C3C87" transform="translate(284,172)"/>
<path d="M0 0 C1.32 0.66 2.64 1.32 4 2 C2.47793991 4.62901288 1.15634036 6.84365964 -1 9 C-2.1875 7.3125 -2.1875 7.3125 -3 5 C-1.625 2.25 -1.625 2.25 0 0 Z " fill="#5C6AA0" transform="translate(180,158)"/>
<path d="M0 0 C0.66 0 1.32 0 2 0 C2 0.66 2 1.32 2 2 C2.66 2.33 3.32 2.66 4 3 C3.01 3.33 2.02 3.66 1 4 C1 4.66 1 5.32 1 6 C0.34 6 -0.32 6 -1 6 C-1.66 7.32 -2.32 8.64 -3 10 C-2.25 3.375 -2.25 3.375 0 0 Z " fill="#153380" transform="translate(182,161)"/>
<path d="M0 0 C2.97 0.495 2.97 0.495 6 1 C5.37609375 1.07089844 4.7521875 1.14179687 4.109375 1.21484375 C1.80770679 1.80004532 1.80770679 1.80004532 0.953125 4.06640625 C0.72109375 4.89011719 0.4890625 5.71382813 0.25 6.5625 C0.00765625 7.38878906 -0.2346875 8.21507813 -0.484375 9.06640625 C-0.65453125 9.70449219 -0.8246875 10.34257813 -1 11 C-1.33 11 -1.66 11 -2 11 C-1.125 3.375 -1.125 3.375 0 0 Z " fill="#5F6EA2" transform="translate(317,116)"/>
<path d="M0 0 C2.89696854 0.36982577 5.37621929 0.68810965 8 2 C8 2.66 8 3.32 8 4 C5.36 4 2.72 4 0 4 C-0.33 3.01 -0.66 2.02 -1 1 C-0.67 0.67 -0.34 0.34 0 0 Z " fill="#2A4385" transform="translate(181,112)"/>
<path d="M0 0 C-0.66 1.32 -1.32 2.64 -2 4 C-3.65 4 -5.3 4 -7 4 C-6.6875 2.0625 -6.6875 2.0625 -6 0 C-3 -1 -3 -1 0 0 Z " fill="#1E3B89" transform="translate(224,67)"/>
<path d="M0 0 C0.99 0.33 1.98 0.66 3 1 C3 2.98 3 4.96 3 7 C1.35 6.67 -0.3 6.34 -2 6 C-2 4.68 -2 3.36 -2 2 C-1.34 2 -0.68 2 0 2 C0 1.34 0 0.68 0 0 Z " fill="#314B8F" transform="translate(242,31)"/>
<path d="M0 0 C0.66 0 1.32 0 2 0 C2.125 7.75 2.125 7.75 1 10 C0.34 10 -0.32 10 -1 10 C-1.125 3.375 -1.125 3.375 0 0 Z " fill="#0C2F84" transform="translate(382,443)"/>
<path d="M0 0 C0.33 0.66 0.66 1.32 1 2 C0.0625 4.625 0.0625 4.625 -1 7 C-1.66 7 -2.32 7 -3 7 C-3.66 8.32 -4.32 9.64 -5 11 C-5 7.09382567 -3.68215404 4.49370455 -2 1 C-1.34 0.67 -0.68 0.34 0 0 Z " fill="#4A62A3" transform="translate(106,320)"/>
<path d="M0 0 C0.99 0 1.98 0 3 0 C4.61949011 2.57213134 5.04408751 3.67669159 4.625 6.75 C4.41875 7.4925 4.2125 8.235 4 9 C1.49701566 6.06171403 0.53069061 3.82097239 0 0 Z " fill="#425699" transform="translate(300,275)"/>
<path d="M0 0 C3.73884332 2.65654657 5.64978174 4.58110387 7 9 C6.01 9 5.02 9 4 9 C4 8.01 4 7.02 4 6 C3.34 6 2.68 6 2 6 C0.375 4 0.375 4 -1 2 C-0.67 1.34 -0.34 0.68 0 0 Z " fill="#5B6FA0" transform="translate(269,84)"/>
<path d="M0 0 C0.66 0.33 1.32 0.66 2 1 C2.4140625 3.50390625 2.4140625 3.50390625 2.625 6.5625 C2.69976562 7.57441406 2.77453125 8.58632813 2.8515625 9.62890625 C2.90054688 10.41136719 2.94953125 11.19382812 3 12 C0.79514931 9.08910162 -1.29511176 6.23928766 -3 3 C-2.67 2.34 -2.34 1.68 -2 1 C-1.34 1.33 -0.68 1.66 0 2 C0 1.34 0 0.68 0 0 Z " fill="#576FA1" transform="translate(195,55)"/>
<path d="M0 0 C3.55780196 0.60990891 6.6828589 1.5783681 10 3 C8 5 8 5 5.375 5.125 C4.59125 5.08375 3.8075 5.0425 3 5 C2.87625 4.360625 2.7525 3.72125 2.625 3.0625 C2.315625 2.0415625 2.315625 2.0415625 2 1 C1.34 0.67 0.68 0.34 0 0 Z " fill="#576CA8" transform="translate(273,39)"/>
<path d="M0 0 C2.475 0.495 2.475 0.495 5 1 C5 5.29 5 9.58 5 14 C4.67 14 4.34 14 4 14 C3.87882812 13.24074219 3.75765625 12.48148437 3.6328125 11.69921875 C3.46523438 10.70535156 3.29765625 9.71148437 3.125 8.6875 C2.96257813 7.70136719 2.80015625 6.71523438 2.6328125 5.69921875 C2.11914546 2.79940173 2.11914546 2.79940173 0 0 Z " fill="#54689E" transform="translate(60,454)"/>
<path d="M0 0 C0.99 0 1.98 0 3 0 C6 5.75 6 5.75 6 8 C5.34 8 4.68 8 4 8 C2.0276801 6.0276801 1.10526098 4.52631081 0 2 C0 1.34 0 0.68 0 0 Z " fill="#395A9B" transform="translate(441,389)"/>
<path d="M0 0 C1.95582488 2.93373731 3.56224304 5.78216298 5 9 C4.67 9.66 4.34 10.32 4 11 C3.34 10.67 2.68 10.34 2 10 C2 9.34 2 8.68 2 8 C1.01 7.67 0.02 7.34 -1 7 C-0.67 4.69 -0.34 2.38 0 0 Z " fill="#5169A1" transform="translate(393,283)"/>
<path d="M0 0 C0.33 0.99 0.66 1.98 1 3 C-1.83430453 6.2542015 -3.68607774 7.5206753 -8 8 C-7.67 7.34 -7.34 6.68 -7 6 C-6.34 6 -5.68 6 -5 6 C-5 5.34 -5 4.68 -5 4 C-4.34 4 -3.68 4 -3 4 C-3 3.34 -3 2.68 -3 2 C-2.01 1.34 -1.02 0.68 0 0 Z " fill="#526798" transform="translate(318,171)"/>
<path d="M0 0 C0.33 1.32 0.66 2.64 1 4 C-1 5 -3 6 -5 7 C-5 5.02 -5 3.04 -5 1 C-3 0 -3 0 0 0 Z " fill="#10378E" transform="translate(187,169)"/>
<path d="M0 0 C1.32 0.66 2.64 1.32 4 2 C3.67 3.65 3.34 5.3 3 7 C1.35 6.67 -0.3 6.34 -2 6 C-2 5.34 -2 4.68 -2 4 C-2.66 3.67 -3.32 3.34 -4 3 C-2.35 3 -0.7 3 1 3 C0.67 2.01 0.34 1.02 0 0 Z " fill="#2C478C" transform="translate(244,112)"/>
<path d="M0 0 C0.99 0 1.98 0 3 0 C1.68775452 3.93673644 0.08089673 6.22719294 -3 9 C-2.5020163 5.26512223 -2.12508244 3.18762365 0 0 Z " fill="#586B9C" transform="translate(218,71)"/>
<path d="M0 0 C1.1446875 0.0928125 1.1446875 0.0928125 2.3125 0.1875 C1.9825 1.1775 1.6525 2.1675 1.3125 3.1875 C-2.34007704 4.81086757 -4.88112399 5.65149077 -8.6875 4.1875 C-7.6975 3.8575 -6.7075 3.5275 -5.6875 3.1875 C-5.23375 2.671875 -4.78 2.15625 -4.3125 1.625 C-2.6875 0.1875 -2.6875 0.1875 0 0 Z " fill="#37518C" transform="translate(234.6875,40.8125)"/>
<path d="M0 0 C1.42944945 2.35438733 2.08661261 3.48032433 1.625 6.25 C1.41875 6.8275 1.2125 7.405 1 8 C-0.32 7.34 -1.64 6.68 -3 6 C-2.34 6 -1.68 6 -1 6 C-0.67 4.02 -0.34 2.04 0 0 Z M-6 7 C-3.525 7.495 -3.525 7.495 -1 8 C-2.98 8.99 -2.98 8.99 -5 10 C-5.33 9.01 -5.66 8.02 -6 7 Z " fill="#12338E" transform="translate(246,30)"/>
<path d="M0 0 C2 1 2 1 2.703125 2.77734375 C2.88359375 3.49019531 3.0640625 4.20304687 3.25 4.9375 C3.44078125 5.64777344 3.6315625 6.35804688 3.828125 7.08984375 C3.88484375 7.72019531 3.9415625 8.35054688 4 9 C3.34 9.66 2.68 10.32 2 11 C-1.07692308 4.6 -1.07692308 4.6 -0.6875 1.5625 C-0.460625 1.046875 -0.23375 0.53125 0 0 Z " fill="#3D5697" transform="translate(294,258)"/>
<path d="M0 0 C0.33 0.66 0.66 1.32 1 2 C1.66 2 2.32 2 3 2 C4.75 4.25 4.75 4.25 6 7 C5.078125 9.171875 5.078125 9.171875 4 11 C3.32591692 9.73308493 2.66099503 8.46129251 2 7.1875 C1.62875 6.47980469 1.2575 5.77210938 0.875 5.04296875 C0 3 0 3 0 0 Z " fill="#6276AB" transform="translate(270,210)"/>
<path d="M0 0 C0.99 0.33 1.98 0.66 3 1 C3 1.66 3 2.32 3 3 C3.99 2.67 4.98 2.34 6 2 C6 3.65 6 5.3 6 7 C4.125 6.875 4.125 6.875 2 6 C0.75 2.9375 0.75 2.9375 0 0 Z " fill="#39528D" transform="translate(267,204)"/>
<path d="M0 0 C1.98 0 3.96 0 6 0 C3 2 3 2 0.4375 2.875 C-2.14283929 3.79376963 -2.14283929 3.79376963 -3.3125 6.125 C-3.539375 6.74375 -3.76625 7.3625 -4 8 C-4.33 6.02 -4.66 4.04 -5 2 C-3.35 2 -1.7 2 0 2 C0 1.34 0 0.68 0 0 Z " fill="#5B71A0" transform="translate(276,160)"/>
<path d="M0 0 C2.02350324 3.03525486 2.32124018 4.19426202 2.625 7.6875 C2.69976562 8.49574219 2.77453125 9.30398437 2.8515625 10.13671875 C2.90054688 10.75160156 2.94953125 11.36648437 3 12 C-0.11259019 9.18862822 -0.64900977 7.21188278 -1 3 C-0.67 2.01 -0.34 1.02 0 0 Z " fill="#566C9A" transform="translate(237,103)"/>
<path d="M0 0 C0.66 0.33 1.32 0.66 2 1 C1.67 2.32 1.34 3.64 1 5 C-0.65 5.33 -2.3 5.66 -4 6 C-3.6875 4.125 -3.6875 4.125 -3 2 C-2.01 1.34 -1.02 0.68 0 0 Z " fill="#1D3B91" transform="translate(74,480)"/>
<path d="M0 0 C2 3 2 3 1.625 5.6875 C1.41875 6.450625 1.2125 7.21375 1 8 C-0.32 8.33 -1.64 8.66 -3 9 C-2.44271087 5.65626525 -1.64826111 2.96687001 0 0 Z " fill="#485E99" transform="translate(72,389)"/>
<path d="M0 0 C0.33 0 0.66 0 1 0 C1 4.62 1 9.24 1 14 C0.01 13.67 -0.98 13.34 -2 13 C-1.34 8.71 -0.68 4.42 0 0 Z " fill="#08308D" transform="translate(81,373)"/>
<path d="M0 0 C0.33 0 0.66 0 1 0 C1 3.96 1 7.92 1 12 C0.34 12 -0.32 12 -1 12 C-2.09898702 8.70303895 -1.87124444 7.59505097 -1.0625 4.3125 C-0.86785156 3.50425781 -0.67320312 2.69601562 -0.47265625 1.86328125 C-0.31667969 1.24839844 -0.16070312 0.63351562 0 0 Z " fill="#0C2D84" transform="translate(310,280)"/>
<path d="M0 0 C0.66 0 1.32 0 2 0 C2 2.97 2 5.94 2 9 C0.68 8.34 -0.64 7.68 -2 7 C-1.34 4.69 -0.68 2.38 0 0 Z " fill="#0C348E" transform="translate(135,259)"/>
<path d="M0 0 C0.66 0.33 1.32 0.66 2 1 C1.34 2.65 0.68 4.3 0 6 C-0.66 6 -1.32 6 -2 6 C-1.67 7.65 -1.34 9.3 -1 11 C-1.99 10.67 -2.98 10.34 -4 10 C-3.52449439 8.51965236 -3.04448784 7.04074979 -2.5625 5.5625 C-2.29566406 4.73878906 -2.02882812 3.91507812 -1.75390625 3.06640625 C-1 1 -1 1 0 0 Z " fill="#566DA3" transform="translate(133,259)"/>
<path d="M0 0 C2.64465038 3.1254959 3.84414715 6.08788267 5 10 C4.34 10.66 3.68 11.32 3 12 C2.67 9.69 2.34 7.38 2 5 C1.34 5 0.68 5 0 5 C0 3.35 0 1.7 0 0 Z " fill="#4F669C" transform="translate(350,194)"/>
<path d="M0 0 C5 2 5 2 10 4 C7.82311446 5.32168051 6.44782067 6.0131712 3.875 5.9375 C2 5 2 5 0.75 2.4375 C0.5025 1.633125 0.255 0.82875 0 0 Z " fill="#596E9F" transform="translate(230,139)"/>
<path d="M0 0 C-2.2551922 2.2551922 -4.0047587 2.97723468 -7 4 C-7.99 4 -8.98 4 -10 4 C-10 3.34 -10 2.68 -10 2 C-6.37626474 -0.79545292 -4.37834956 -1.37605272 0 0 Z " fill="#495D96" transform="translate(245,56)"/>
<path d="M0 0 C1 3 1 3 1 7 C-1.31 7 -3.62 7 -6 7 C-4.02 4.69 -2.04 2.38 0 0 Z " fill="#596FA5" transform="translate(205,36)"/>
<path d="M0 0 C2.64465038 3.1254959 3.84414715 6.08788267 5 10 C4.01 10 3.02 10 2 10 C0.68373308 6.38026598 0 3.90432869 0 0 Z " fill="#5976B0" transform="translate(447,397)"/>
<path d="M0 0 C0.99 0 1.98 0 3 0 C1.84414715 3.91211733 0.64465038 6.8745041 -2 10 C-1.54177532 6.53058454 -1.10868317 3.32604951 0 0 Z " fill="#52689C" transform="translate(227,240)"/>
<path d="M0 0 C3.99996286 1.33332095 4.83782337 3.4957827 7 7 C4.03 6.505 4.03 6.505 1 6 C0.67 4.02 0.34 2.04 0 0 Z " fill="#52619D" transform="translate(184,161)"/>
<path d="M0 0 C0 0.66 0 1.32 0 2 C0.99 2.33 1.98 2.66 3 3 C-2.41538462 4.23076923 -2.41538462 4.23076923 -5.375 3.0625 C-5.91125 2.711875 -6.4475 2.36125 -7 2 C-4 0 -4 0 0 0 Z " fill="#113284" transform="translate(259,82)"/>
<path d="M0 0 C0.66 0 1.32 0 2 0 C2 0.99 2 1.98 2 3 C2.99 2.67 3.98 2.34 5 2 C5 3.98 5 5.96 5 8 C4.34 8 3.68 8 3 8 C3 7.34 3 6.68 3 6 C2.34 6 1.68 6 1 6 C0.67 4.02 0.34 2.04 0 0 Z " fill="#153888" transform="translate(210,72)"/>
<path d="M0 0 C0 0.66 0 1.32 0 2 C-0.99 2.33 -1.98 2.66 -3 3 C-3.66 3.66 -4.32 4.32 -5 5 C-5.66 5 -6.32 5 -7 5 C-7.33 3.68 -7.66 2.36 -8 1 C-5.23735711 0.40267181 -2.83967231 0 0 0 Z " fill="#253E83" transform="translate(293,44)"/>
<path d="M0 0 C0.99 0 1.98 0 3 0 C4.75 2.25 4.75 2.25 6 5 C5.578125 7.171875 5.578125 7.171875 5 9 C4.16094435 7.87926138 3.32892169 6.75325453 2.5 5.625 C2.0359375 4.99851562 1.571875 4.37203125 1.09375 3.7265625 C0 2 0 2 0 0 Z " fill="#6675AA" transform="translate(22,477)"/>
<path d="M0 0 C0.66 0.66 1.32 1.32 2 2 C1.625 5.125 1.625 5.125 1 8 C0.34 8 -0.32 8 -1 8 C-1.625 5.6875 -1.625 5.6875 -2 3 C-1.34 2.01 -0.68 1.02 0 0 Z " fill="#294486" transform="translate(147,417)"/>
<path d="M0 0 C0.33 0 0.66 0 1 0 C1 3.63 1 7.26 1 11 C0.34 11 -0.32 11 -1 11 C-0.67 9.68 -0.34 8.36 0 7 C-0.99 6.67 -1.98 6.34 -3 6 C-2 4 -1 2 0 0 Z " fill="#0B2D7E" transform="translate(328,323)"/>
<path d="M0 0 C0.1875 3.375 0.1875 3.375 0 7 C-0.99 7.66 -1.98 8.32 -3 9 C-3.6875 6.1875 -3.6875 6.1875 -4 3 C-1.8 0 -1.8 0 0 0 Z " fill="#103182" transform="translate(320,304)"/>
<path d="M0 0 C2.475 0.99 2.475 0.99 5 2 C5 3.65 5 5.3 5 7 C4.01 7.495 4.01 7.495 3 8 C0 2.25 0 2.25 0 0 Z " fill="#4961A0" transform="translate(309,296)"/>
<path d="M0 0 C0.33 0 0.66 0 1 0 C1.22786458 2.01822917 1.45572917 4.03645833 1.68359375 6.0546875 C1.91292961 8.07404316 1.91292961 8.07404316 3 10 C2.01 11.32 1.02 12.64 0 14 C-1.13016601 8.97703996 -0.77916092 5.02125926 0 0 Z " fill="#0D3289" transform="translate(300,260)"/>
<path d="M0 0 C0.33 0 0.66 0 1 0 C1 1.65 1 3.3 1 5 C1.66 5.33 2.32 5.66 3 6 C2.01 6.495 2.01 6.495 1 7 C0.59270772 9.32156597 0.25561323 11.6568787 0 14 C-0.33 14 -0.66 14 -1 14 C-1.02705729 12.22925083 -1.04642195 10.45838289 -1.0625 8.6875 C-1.07410156 7.70136719 -1.08570313 6.71523437 -1.09765625 5.69921875 C-1 3 -1 3 0 0 Z " fill="#142F7D" transform="translate(349,194)"/>
<path d="M0 0 C1.98 0.66 3.96 1.32 6 2 C5.67 3.65 5.34 5.3 5 7 C4.67 6.34 4.34 5.68 4 5 C3.34 5 2.68 5 2 5 C2 4.34 2 3.68 2 3 C1.01 2.67 0.02 2.34 -1 2 C-0.67 1.34 -0.34 0.68 0 0 Z " fill="#153993" transform="translate(322,168)"/>
<path d="M0 0 C0.33 0 0.66 0 1 0 C1.33 2.97 1.66 5.94 2 9 C1.01 9 0.02 9 -1 9 C-1.33 6.69 -1.66 4.38 -2 2 C-1.34 2 -0.68 2 0 2 C0 1.34 0 0.68 0 0 Z " fill="#485C93" transform="translate(313,130)"/>
<path d="M0 0 C0.99 1.32 1.98 2.64 3 4 C2.34 4.66 1.68 5.32 1 6 C-0.32 5.34 -1.64 4.68 -3 4 C-3 3.01 -3 2.02 -3 1 C-2.01 0.67 -1.02 0.34 0 0 Z " fill="#193A8C" transform="translate(314,79)"/>
<path d="M0 0 C0.66 0 1.32 0 2 0 C1.50168276 3.68754757 0.89932357 5.60490662 -2 8 C-3.125 4.25 -3.125 4.25 -2 2 C-1.34 2 -0.68 2 0 2 C0 1.34 0 0.68 0 0 Z " fill="#596B9A" transform="translate(317,58)"/>
<path d="M0 0 C0 2.64 0 5.28 0 8 C-0.66 8 -1.32 8 -2 8 C-2.2165625 6.824375 -2.2165625 6.824375 -2.4375 5.625 C-2.87798925 3.03578982 -2.87798925 3.03578982 -4 1 C-2 0 -2 0 0 0 Z " fill="#062A84" transform="translate(73,397)"/>
<path d="M0 0 C0.68707555 2.49064888 1 4.37886292 1 7 C0.01 7.66 -0.98 8.32 -2 9 C-2.125 5.625 -2.125 5.625 -2 2 C-1.34 1.34 -0.68 0.68 0 0 Z " fill="#27468B" transform="translate(75,385)"/>
<path d="M0 0 C0.66 0.33 1.32 0.66 2 1 C2.73075648 3.3140622 3.40138258 5.64828869 4 8 C3.34 8.66 2.68 9.32 2 10 C1.01 7.03 0.02 4.06 -1 1 C-0.67 0.67 -0.34 0.34 0 0 Z " fill="#4E629D" transform="translate(405,309)"/>
<path d="M0 0 C0.33 0 0.66 0 1 0 C1 2.64 1 5.28 1 8 C-0.32 8.33 -1.64 8.66 -3 9 C-2.01 6.03 -1.02 3.06 0 0 Z " fill="#475CA0" transform="translate(126,273)"/>
<path d="M0 0 C1.65 0.33 3.3 0.66 5 1 C5 2.32 5 3.64 5 5 C3.02 4.34 1.04 3.68 -1 3 C-0.67 2.01 -0.34 1.02 0 0 Z " fill="#39539A" transform="translate(298,177)"/>
<path d="M0 0 C-1.98 0.99 -1.98 0.99 -4 2 C-4 2.66 -4 3.32 -4 4 C-6.97 3.505 -6.97 3.505 -10 3 C-7.29536552 -0.8183075 -4.37912428 -0.24787496 0 0 Z " fill="#697CAE" transform="translate(229,171)"/>
<path d="M0 0 C0.66 0.66 1.32 1.32 2 2 C1.625 4.125 1.625 4.125 1 6 C-0.65 6.33 -2.3 6.66 -4 7 C-2.68 4.69 -1.36 2.38 0 0 Z " fill="#4B62A3" transform="translate(296,123)"/>
<path d="M0 0 C1.32 0.66 2.64 1.32 4 2 C4 2.66 4 3.32 4 4 C2.1875 4.6875 2.1875 4.6875 0 5 C-1.75 3.5625 -1.75 3.5625 -3 2 C-2.01 2 -1.02 2 0 2 C0 1.34 0 0.68 0 0 Z " fill="#2A4488" transform="translate(265,82)"/>
<path d="M0 0 C2.97 0.495 2.97 0.495 6 1 C6 1.66 6 2.32 6 3 C6.99 3.33 7.98 3.66 9 4 C8.34 4 7.68 4 7 4 C6.67 4.66 6.34 5.32 6 6 C3.97945196 4.35830472 1.97956942 2.69088222 0 1 C0 0.67 0 0.34 0 0 Z " fill="#5B6FA3" transform="translate(282,63)"/>
<path d="M0 0 C1.65 1.65 3.3 3.3 5 5 C2.03 5 -0.94 5 -4 5 C-3.67 4.34 -3.34 3.68 -3 3 C-2.01 3 -1.02 3 0 3 C0 2.01 0 1.02 0 0 Z " fill="#395294" transform="translate(315,45)"/>
<path d="M0 0 C1.42944945 2.35438733 2.08661261 3.48032433 1.625 6.25 C1.41875 6.8275 1.2125 7.405 1 8 C0.34 8 -0.32 8 -1 8 C-1.04241723 5.66705225 -1.04092937 3.33297433 -1 1 C-0.67 0.67 -0.34 0.34 0 0 Z " fill="#0F3287" transform="translate(120,468)"/>
<path d="M0 0 C1.0326802 2.78823655 1.04509293 3.8677274 0.0625 6.75 C-0.288125 7.4925 -0.63875 8.235 -1 9 C-1.99 8.67 -2.98 8.34 -4 8 C-2.87548273 5.0280615 -1.77706209 2.66559313 0 0 Z " fill="#6F7EAF" transform="translate(26,444)"/>
<path d="M0 0 C0.66 0 1.32 0 2 0 C2 0.66 2 1.32 2 2 C2.66 2.33 3.32 2.66 4 3 C2.68 3.99 1.36 4.98 0 6 C-0.66 5.67 -1.32 5.34 -2 5 C-2 4.01 -2 3.02 -2 2 C-1.34 2 -0.68 2 0 2 C0 1.34 0 0.68 0 0 Z " fill="#445D9D" transform="translate(30,440)"/>
<path d="M0 0 C0 2.31 0 4.62 0 7 C0.66 7.33 1.32 7.66 2 8 C1.01 8 0.02 8 -1 8 C-2.4606285 5.35261084 -3 4.10551666 -3 1 C-1 0 -1 0 0 0 Z " fill="#465D9C" transform="translate(374,430)"/>
<path d="M0 0 C0.99 0.33 1.98 0.66 3 1 C3.625 3.3125 3.625 3.3125 4 6 C3.01 7.485 3.01 7.485 2 9 C0.50178941 5.62902617 0 3.79557881 0 0 Z " fill="#4D6497" transform="translate(367,421)"/>
<path d="M0 0 C0.66 0 1.32 0 2 0 C2.73080266 1.97746603 3.39421747 3.98072489 4 6 C3.67 6.66 3.34 7.32 3 8 C2.34 7.67 1.68 7.34 1 7 C0.59270772 4.67843403 0.25561323 2.3431213 0 0 Z " fill="#3C5898" transform="translate(436,376)"/>
<path d="M0 0 C1.32 0.33 2.64 0.66 4 1 C3.42655063 3.86724686 3.1385485 4.8614515 1 7 C0 6 0 6 -0.0625 2.9375 C-0.041875 1.968125 -0.02125 0.99875 0 0 Z " fill="#193789" transform="translate(203,287)"/>
<path d="M0 0 C0.99 0 1.98 0 3 0 C2.01 2.97 1.02 5.94 0 9 C-0.95904856 5.16380575 -0.91892116 3.67568464 0 0 Z " fill="#4F5F99" transform="translate(237,217)"/>
<path d="M0 0 C2.875 -0.1875 2.875 -0.1875 6 0 C6.66 0.99 7.32 1.98 8 3 C5.36 2.67 2.72 2.34 0 2 C0 1.34 0 0.68 0 0 Z " fill="#384A85" transform="translate(231,159)"/>
<path d="M0 0 C1.9375 0.3125 1.9375 0.3125 4 1 C4.33 1.99 4.66 2.98 5 4 C2.36 4 -0.28 4 -3 4 C-2.01 3.67 -1.02 3.34 0 3 C0 2.01 0 1.02 0 0 Z " fill="#153179" transform="translate(241,145)"/>
<path d="M0 0 C2 1.3125 2 1.3125 4 3 C4 3.99 4 4.98 4 6 C3.01 6.33 2.02 6.66 1 7 C0 6 0 6 -0.0625 2.9375 C-0.041875 1.968125 -0.02125 0.99875 0 0 Z " fill="#183C9C" transform="translate(196,148)"/>
<path d="M0 0 C2.60334924 2.71182212 2.99456691 3.89133813 3.1875 7.75 C3.125625 8.8225 3.06375 9.895 3 11 C1.26337666 7.77484237 0.1094072 4.48670834 -1 1 C-0.67 0.67 -0.34 0.34 0 0 Z " fill="#687BAA" transform="translate(197,123)"/>
<path d="M0 0 C1.65 1.32 3.3 2.64 5 4 C0.545 4.495 0.545 4.495 -4 5 C-3.67 4.01 -3.34 3.02 -3 2 C-2.01 2 -1.02 2 0 2 C0 1.34 0 0.68 0 0 Z " fill="#506399" transform="translate(327,112)"/>
<path d="M0 0 C0.33 0 0.66 0 1 0 C1 1.65 1 3.3 1 5 C-0.32 5.33 -1.64 5.66 -3 6 C-3.33 5.34 -3.66 4.68 -4 4 C-3.34 4 -2.68 4 -2 4 C-1.34 2.68 -0.68 1.36 0 0 Z " fill="#193A87" transform="translate(65,487)"/>
<path d="M0 0 C0.66 0.33 1.32 0.66 2 1 C2.73075648 3.3140622 3.40138258 5.64828869 4 8 C3.01 7.67 2.02 7.34 1 7 C-0.1875 3.9375 -0.1875 3.9375 -1 1 C-0.67 0.67 -0.34 0.34 0 0 Z " fill="#566DA3" transform="translate(476,458)"/>
<path d="M0 0 C0.99 0.33 1.98 0.66 3 1 C2.34 2.98 1.68 4.96 1 7 C0.34 6.67 -0.32 6.34 -1 6 C-0.67 4.02 -0.34 2.04 0 0 Z " fill="#374F92" transform="translate(129,458)"/>
<path d="M0 0 C0.33 0 0.66 0 1 0 C0.67 2.97 0.34 5.94 0 9 C-2 5 -2 5 -1.6875 2.8125 C-1 1 -1 1 0 0 Z " fill="#364F8B" transform="translate(23,451)"/>
<path d="M0 0 C0.66 0.33 1.32 0.66 2 1 C1.34 3.31 0.68 5.62 0 8 C-0.66 7.01 -1.32 6.02 -2 5 C-1.125 2.3125 -1.125 2.3125 0 0 Z " fill="#133285" transform="translate(459,425)"/>
<path d="M0 0 C0.66 0 1.32 0 2 0 C4 2 4 2 4 5 C3.01 5 2.02 5 1 5 C0.67 5.66 0.34 6.32 0 7 C0 4.69 0 2.38 0 0 Z " fill="#1E3D93" transform="translate(423,352)"/>
<path d="M0 0 C1.98 0.99 1.98 0.99 4 2 C3.67 3.65 3.34 5.3 3 7 C0 3.375 0 3.375 0 0 Z " fill="#5973A8" transform="translate(320,319)"/>
<path d="M0 0 C2.15377564 2.62198774 3.40072174 4.64404172 4 8 C2.68 7.67 1.36 7.34 0 7 C0 4.69 0 2.38 0 0 Z " fill="#697BA7" transform="translate(368,231)"/>
<path d="M0 0 C1.65 0 3.3 0 5 0 C4.34 2.31 3.68 4.62 3 7 C2.67 7 2.34 7 2 7 C2 5.35 2 3.7 2 2 C1.34 2 0.68 2 0 2 C0 1.34 0 0.68 0 0 Z " fill="#455C9C" transform="translate(231,226)"/>
<path d="M0 0 C0.99 0.495 0.99 0.495 2 1 C2.73075648 3.3140622 3.40138258 5.64828869 4 8 C3.01 8.66 2.02 9.32 1 10 C0.67 6.7 0.34 3.4 0 0 Z " fill="#5D76A9" transform="translate(355,204)"/>
<path d="M0 0 C0.33 0 0.66 0 1 0 C1 2.97 1 5.94 1 9 C-0.32 8.67 -1.64 8.34 -3 8 C-2.01 5.36 -1.02 2.72 0 0 Z " fill="#566CA0" transform="translate(279,185)"/>
<path d="M0 0 C1.64826111 2.96687001 2.44271087 5.65626525 3 9 C2.01 9.495 2.01 9.495 1 10 C-0.60725635 6.78548731 -0.05748185 3.56387464 0 0 Z " fill="#526C98" transform="translate(229,173)"/>
<path d="M0 0 C1.5625 1.75 1.5625 1.75 3 4 C2.6875 6.25 2.6875 6.25 2 8 C1.34 8 0.68 8 0 8 C0 5.36 0 2.72 0 0 Z " fill="#4E5F93" transform="translate(319,145)"/>
<path d="M0 0 C0 1.98 0 3.96 0 6 C-0.99 5.67 -1.98 5.34 -3 5 C-3.6875 2.9375 -3.6875 2.9375 -4 1 C-2 0 -2 0 0 0 Z " fill="#123081" transform="translate(301,122)"/>
<path d="M0 0 C-0.99 0 -1.98 0 -3 0 C-3.33 0.99 -3.66 1.98 -4 3 C-5.65 2.67 -7.3 2.34 -9 2 C-5.945634 -1.054366 -3.9532319 -1.22686507 0 0 Z " fill="#183480" transform="translate(327,114)"/>
<path d="M0 0 C0 0.66 0 1.32 0 2 C-2.64 2.33 -5.28 2.66 -8 3 C-8 2.34 -8 1.68 -8 1 C-5.10765685 0.17361624 -3.11257569 0 0 0 Z " fill="#21397F" transform="translate(251,53)"/>
</svg>
